<svg width="330" height="204" viewBox="0 0 330 204" fill="none" xmlns="http://www.w3.org/2000/svg">
<path d="M30 29.9755H305V177C305 191.912 292.912 204 278 204H57C42.0883 204 30 191.912 30 177V29.9755Z" fill="#FEFDFB"/>
<path d="M30 20C30 8.95429 38.9543 0 50 0H285C296.046 0 305 8.9543 305 20V29.9755H30V20Z" fill="#C1A58D"/>
<path d="M139.559 24V13.5H140.979V21.84L147.999 13.5H149.259V24H147.839V15.64L140.839 24H139.559ZM162.369 24.1C161.369 24.1 160.469 23.8733 159.669 23.42C158.882 22.9533 158.262 22.32 157.809 21.52C157.355 20.7067 157.129 19.78 157.129 18.74C157.129 17.6867 157.355 16.76 157.809 15.96C158.262 15.16 158.882 14.5333 159.669 14.08C160.469 13.6267 161.369 13.4 162.369 13.4C163.369 13.4 164.262 13.6267 165.049 14.08C165.835 14.5333 166.455 15.16 166.909 15.96C167.362 16.76 167.589 17.6867 167.589 18.74C167.589 19.78 167.362 20.7067 166.909 21.52C166.455 22.32 165.835 22.9533 165.049 23.42C164.262 23.8733 163.369 24.1 162.369 24.1ZM153.329 24V13.5H154.749V18.02H157.949V19.32H154.749V24H153.329ZM162.369 22.86C163.102 22.86 163.755 22.6867 164.329 22.34C164.902 21.9933 165.355 21.5133 165.689 20.9C166.022 20.2733 166.189 19.5533 166.189 18.74C166.189 17.9133 166.022 17.1933 165.689 16.58C165.355 15.9667 164.902 15.4933 164.329 15.16C163.755 14.8133 163.102 14.64 162.369 14.64C161.649 14.64 160.995 14.8133 160.409 15.16C159.835 15.4933 159.382 15.9667 159.049 16.58C158.715 17.1933 158.549 17.9133 158.549 18.74C158.549 19.5533 158.715 20.2733 159.049 20.9C159.382 21.5133 159.835 21.9933 160.409 22.34C160.995 22.6867 161.649 22.86 162.369 22.86ZM169.675 24.12C169.515 24.12 169.348 24.1067 169.175 24.08C169.015 24.0533 168.841 24.02 168.655 23.98L168.755 22.76C168.848 22.7733 168.935 22.7933 169.015 22.82C169.108 22.8333 169.188 22.84 169.255 22.84C169.681 22.84 170.021 22.68 170.275 22.36C170.541 22.04 170.741 21.6133 170.875 21.08C171.008 20.5467 171.101 19.9467 171.155 19.28C171.208 18.6 171.255 17.92 171.295 17.24L171.475 13.5H179.175V24H177.755V14.32L178.115 14.74H172.395L172.735 14.3L172.575 17.34C172.535 18.2467 172.461 19.1133 172.355 19.94C172.261 20.7667 172.108 21.4933 171.895 22.12C171.695 22.7467 171.415 23.24 171.055 23.6C170.695 23.9467 170.235 24.12 169.675 24.12ZM187.451 24.02L183.211 24V13.5H184.631V17.16L187.731 17.2C189.051 17.2133 190.051 17.5067 190.731 18.08C191.425 18.6533 191.771 19.48 191.771 20.56C191.771 21.68 191.398 22.54 190.651 23.14C189.918 23.74 188.851 24.0333 187.451 24.02ZM187.371 22.94C188.345 22.9533 189.078 22.76 189.571 22.36C190.078 21.9467 190.331 21.3467 190.331 20.56C190.331 19.7733 190.085 19.2 189.591 18.84C189.098 18.4667 188.358 18.2733 187.371 18.26L184.631 18.22V22.9L187.371 22.94Z" fill="#FCF7F3"/>
<path d="M163.284 61V50.28L163.796 50.824H160.644V49.8H164.436V61H163.284Z" fill="#9F9892"/>
<path d="M195.124 61V60.184L199.78 55.624C200.207 55.208 200.527 54.8453 200.74 54.536C200.953 54.216 201.097 53.9173 201.172 53.64C201.247 53.3627 201.284 53.1013 201.284 52.856C201.284 52.2053 201.06 51.6933 200.612 51.32C200.175 50.9467 199.524 50.76 198.66 50.76C197.999 50.76 197.412 50.8613 196.9 51.064C196.399 51.2667 195.967 51.5813 195.604 52.008L194.788 51.304C195.225 50.792 195.785 50.3973 196.468 50.12C197.151 49.8427 197.913 49.704 198.756 49.704C199.513 49.704 200.169 49.8267 200.724 50.072C201.279 50.3067 201.705 50.6533 202.004 51.112C202.313 51.5707 202.468 52.1093 202.468 52.728C202.468 53.0907 202.415 53.448 202.308 53.8C202.212 54.152 202.031 54.5253 201.764 54.92C201.508 55.304 201.129 55.7413 200.628 56.232L196.356 60.424L196.036 59.976H202.98V61H195.124Z" fill="#9F9892"/>
<path d="M236.676 61.096C235.865 61.096 235.097 60.968 234.372 60.712C233.657 60.4453 233.081 60.0933 232.644 59.656L233.204 58.744C233.567 59.1173 234.052 59.4267 234.66 59.672C235.279 59.9173 235.951 60.04 236.676 60.04C237.604 60.04 238.313 59.8373 238.804 59.432C239.305 59.0267 239.556 58.4827 239.556 57.8C239.556 57.1173 239.311 56.5733 238.82 56.168C238.34 55.7627 237.577 55.56 236.532 55.56H235.732V54.712L239.188 50.376L239.348 50.824H233.108V49.8H240.308V50.616L236.852 54.952L236.292 54.584H236.724C238.068 54.584 239.071 54.8827 239.732 55.48C240.404 56.0773 240.74 56.8453 240.74 57.784C240.74 58.4133 240.591 58.9787 240.292 59.48C239.993 59.9813 239.54 60.376 238.932 60.664C238.335 60.952 237.583 61.096 236.676 61.096Z" fill="#9F9892"/>
<path d="M271.14 58.056V57.224L277.076 49.8H278.356L272.468 57.224L271.844 57.032H280.852V58.056H271.14ZM277.46 61V58.056L277.492 57.032V54.44H278.612V61H277.46Z" fill="#9F9892"/>
<path d="M53.3676 92.096C52.5676 92.096 51.8049 91.968 51.0796 91.712C50.3542 91.4453 49.7782 91.0933 49.3516 90.656L49.9116 89.744C50.2636 90.1173 50.7436 90.4267 51.3516 90.672C51.9702 90.9173 52.6369 91.04 53.3516 91.04C54.3009 91.04 55.0209 90.832 55.5116 90.416C56.0129 89.9893 56.2636 89.4347 56.2636 88.752C56.2636 88.272 56.1462 87.8613 55.9116 87.52C55.6876 87.168 55.3036 86.896 54.7596 86.704C54.2156 86.512 53.4689 86.416 52.5196 86.416H50.1356L50.7116 80.8H56.8396V81.824H51.1756L51.7676 81.264L51.2716 85.968L50.6796 85.392H52.7756C53.9062 85.392 54.8129 85.5307 55.4956 85.808C56.1782 86.0853 56.6689 86.4747 56.9676 86.976C57.2769 87.4667 57.4316 88.0427 57.4316 88.704C57.4316 89.3333 57.2822 89.9093 56.9836 90.432C56.6849 90.944 56.2369 91.3493 55.6396 91.648C55.0422 91.9467 54.2849 92.096 53.3676 92.096Z" fill="#9F9892"/>
<path fill-rule="evenodd" clip-rule="evenodd" d="M240 107.384C238.132 104.519 234.875 100 229.424 100C223.918 100 221 104.863 221 109.292C221 115.12 224.07 120.128 227.938 124.241C231.812 128.36 236.569 131.639 240 134C243.431 131.639 248.188 128.36 252.062 124.241C255.93 120.128 259 115.12 259 109.292C259 104.863 256.082 100 250.576 100C245.125 100 241.868 104.519 240 107.384Z" fill="#DEB2A9"/>
<path d="M90.424 92.096C89.432 92.096 88.5947 91.8773 87.912 91.44C87.2293 90.992 86.712 90.352 86.36 89.52C86.008 88.6773 85.832 87.6693 85.832 86.496C85.832 85.2267 86.0453 84.1653 86.472 83.312C86.9093 82.448 87.512 81.7973 88.28 81.36C89.048 80.9227 89.9387 80.704 90.952 80.704C91.4533 80.704 91.9333 80.752 92.392 80.848C92.8507 80.944 93.256 81.0987 93.608 81.312L93.144 82.24C92.856 82.048 92.5253 81.9147 92.152 81.84C91.7787 81.7547 91.384 81.712 90.968 81.712C89.7627 81.712 88.7973 82.096 88.072 82.864C87.3573 83.632 87 84.7787 87 86.304C87 86.5387 87.0107 86.832 87.032 87.184C87.064 87.5253 87.128 87.8667 87.224 88.208L86.824 87.904C86.9413 87.3493 87.1707 86.88 87.512 86.496C87.8533 86.1013 88.28 85.8027 88.792 85.6C89.304 85.3973 89.864 85.296 90.472 85.296C91.2187 85.296 91.8747 85.4347 92.44 85.712C93.0053 85.9893 93.448 86.3787 93.768 86.88C94.088 87.3813 94.248 87.9733 94.248 88.656C94.248 89.3493 94.0827 89.9573 93.752 90.48C93.4213 90.992 92.9627 91.392 92.376 91.68C91.8 91.9573 91.1493 92.096 90.424 92.096ZM90.376 91.12C90.9093 91.12 91.3787 91.024 91.784 90.832C92.2 90.6293 92.5253 90.3467 92.76 89.984C92.9947 89.6107 93.112 89.1787 93.112 88.688C93.112 87.952 92.856 87.3653 92.344 86.928C91.8427 86.4907 91.16 86.272 90.296 86.272C89.72 86.272 89.2187 86.3787 88.792 86.592C88.3653 86.8053 88.0293 87.0987 87.784 87.472C87.5387 87.8347 87.416 88.2507 87.416 88.72C87.416 89.1253 87.528 89.5147 87.752 89.888C87.976 90.2507 88.3067 90.5493 88.744 90.784C89.192 91.008 89.736 91.12 90.376 91.12Z" fill="#9F9892"/>
<path d="M123.8 92L128.632 81.312L128.984 81.824H122.056L122.648 81.264V83.92H121.512V80.8H129.736V81.616L125.048 92H123.8Z" fill="#9F9892"/>
<path d="M162.088 92.096C161.192 92.096 160.419 91.968 159.768 91.712C159.128 91.456 158.632 91.088 158.28 90.608C157.939 90.1173 157.768 89.5413 157.768 88.88C157.768 88.24 157.933 87.696 158.264 87.248C158.605 86.7893 159.096 86.4373 159.736 86.192C160.387 85.9467 161.171 85.824 162.088 85.824C162.995 85.824 163.773 85.9467 164.424 86.192C165.075 86.4373 165.571 86.7893 165.912 87.248C166.264 87.696 166.44 88.24 166.44 88.88C166.44 89.5413 166.264 90.1173 165.912 90.608C165.56 91.088 165.059 91.456 164.408 91.712C163.757 91.968 162.984 92.096 162.088 92.096ZM162.088 91.12C163.08 91.12 163.853 90.9173 164.408 90.512C164.973 90.1067 165.256 89.5573 165.256 88.864C165.256 88.1707 164.973 87.6267 164.408 87.232C163.853 86.8267 163.08 86.624 162.088 86.624C161.096 86.624 160.323 86.8267 159.768 87.232C159.213 87.6267 158.936 88.1707 158.936 88.864C158.936 89.5573 159.213 90.1067 159.768 90.512C160.323 90.9173 161.096 91.12 162.088 91.12ZM162.088 85.712C162.963 85.712 163.645 85.5307 164.136 85.168C164.627 84.8053 164.872 84.32 164.872 83.712C164.872 83.072 164.616 82.576 164.104 82.224C163.603 81.8613 162.931 81.68 162.088 81.68C161.245 81.68 160.573 81.8613 160.072 82.224C159.571 82.576 159.32 83.0667 159.32 83.696C159.32 84.3147 159.56 84.8053 160.04 85.168C160.531 85.5307 161.213 85.712 162.088 85.712ZM162.088 86.48C161.256 86.48 160.547 86.368 159.96 86.144C159.384 85.92 158.941 85.6 158.632 85.184C158.323 84.7573 158.168 84.2507 158.168 83.664C158.168 83.0453 158.328 82.5173 158.648 82.08C158.979 81.632 159.437 81.2907 160.024 81.056C160.611 80.8213 161.299 80.704 162.088 80.704C162.877 80.704 163.565 80.8213 164.152 81.056C164.749 81.2907 165.213 81.632 165.544 82.08C165.875 82.5173 166.04 83.0453 166.04 83.664C166.04 84.2507 165.885 84.7573 165.576 85.184C165.267 85.6 164.813 85.92 164.216 86.144C163.629 86.368 162.92 86.48 162.088 86.48Z" fill="#9F9892"/>
<path d="M197.792 92.096C197.291 92.096 196.811 92.048 196.352 91.952C195.904 91.856 195.499 91.7013 195.136 91.488L195.6 90.56C195.888 90.752 196.219 90.8907 196.592 90.976C196.976 91.0507 197.371 91.088 197.776 91.088C198.981 91.088 199.941 90.704 200.656 89.936C201.381 89.168 201.744 88.0213 201.744 86.496C201.744 86.2507 201.728 85.9573 201.696 85.616C201.675 85.2747 201.616 84.9333 201.52 84.592L201.92 84.896C201.813 85.4507 201.584 85.9253 201.232 86.32C200.891 86.704 200.464 86.9973 199.952 87.2C199.451 87.4027 198.891 87.504 198.272 87.504C197.536 87.504 196.88 87.3653 196.304 87.088C195.739 86.8107 195.296 86.4213 194.976 85.92C194.656 85.4187 194.496 84.8267 194.496 84.144C194.496 83.44 194.661 82.832 194.992 82.32C195.323 81.808 195.776 81.4133 196.352 81.136C196.939 80.848 197.595 80.704 198.32 80.704C199.312 80.704 200.149 80.928 200.832 81.376C201.515 81.8133 202.032 82.448 202.384 83.28C202.736 84.112 202.912 85.12 202.912 86.304C202.912 87.5627 202.693 88.624 202.256 89.488C201.829 90.352 201.232 91.0027 200.464 91.44C199.696 91.8773 198.805 92.096 197.792 92.096ZM198.448 86.528C199.024 86.528 199.525 86.4213 199.952 86.208C200.389 85.9947 200.725 85.7013 200.96 85.328C201.205 84.9547 201.328 84.5387 201.328 84.08C201.328 83.664 201.216 83.2747 200.992 82.912C200.768 82.5493 200.437 82.256 200 82.032C199.563 81.7973 199.019 81.68 198.368 81.68C197.835 81.68 197.36 81.7813 196.944 81.984C196.539 82.176 196.219 82.4533 195.984 82.816C195.749 83.1787 195.632 83.6107 195.632 84.112C195.632 84.848 195.883 85.4347 196.384 85.872C196.896 86.3093 197.584 86.528 198.448 86.528Z" fill="#9F9892"/>
<path d="M232.784 92V81.28L233.296 81.824H230.144V80.8H233.936V92H232.784ZM241.077 92.096C240.213 92.096 239.445 91.872 238.773 91.424C238.101 90.9653 237.573 90.3147 237.189 89.472C236.805 88.6187 236.613 87.5947 236.613 86.4C236.613 85.2053 236.805 84.1867 237.189 83.344C237.573 82.4907 238.101 81.84 238.773 81.392C239.445 80.9333 240.213 80.704 241.077 80.704C241.941 80.704 242.709 80.9333 243.381 81.392C244.053 81.84 244.581 82.4907 244.965 83.344C245.36 84.1867 245.557 85.2053 245.557 86.4C245.557 87.5947 245.36 88.6187 244.965 89.472C244.581 90.3147 244.053 90.9653 243.381 91.424C242.709 91.872 241.941 92.096 241.077 92.096ZM241.077 91.04C241.739 91.04 242.315 90.864 242.805 90.512C243.296 90.1493 243.68 89.6267 243.957 88.944C244.235 88.2507 244.373 87.4027 244.373 86.4C244.373 85.3973 244.235 84.5547 243.957 83.872C243.68 83.1787 243.296 82.656 242.805 82.304C242.315 81.9413 241.739 81.76 241.077 81.76C240.437 81.76 239.867 81.9413 239.365 82.304C238.864 82.656 238.475 83.1787 238.197 83.872C237.92 84.5547 237.781 85.3973 237.781 86.4C237.781 87.4027 237.92 88.2507 238.197 88.944C238.475 89.6267 238.864 90.1493 239.365 90.512C239.867 90.864 240.437 91.04 241.077 91.04Z" fill="#9F9892"/>
<path d="M275.784 92V81.28L276.296 81.824H273.144V80.8H276.936V92H275.784ZM281.565 92V81.28L282.077 81.824H278.925V80.8H282.717V92H281.565Z" fill="#9F9892"/>
<path d="M51.7836 123V112.28L52.2956 112.824H49.1436V111.8H52.9356V123H51.7836ZM55.4048 123V122.184L60.0609 117.624C60.4875 117.208 60.8075 116.845 61.0209 116.536C61.2342 116.216 61.3782 115.917 61.4529 115.64C61.5275 115.363 61.5649 115.101 61.5649 114.856C61.5649 114.205 61.3409 113.693 60.8929 113.32C60.4555 112.947 59.8049 112.76 58.9408 112.76C58.2795 112.76 57.6928 112.861 57.1808 113.064C56.6795 113.267 56.2475 113.581 55.8848 114.008L55.0688 113.304C55.5061 112.792 56.0661 112.397 56.7488 112.12C57.4315 111.843 58.1941 111.704 59.0369 111.704C59.7942 111.704 60.4502 111.827 61.0049 112.072C61.5595 112.307 61.9862 112.653 62.2849 113.112C62.5942 113.571 62.7489 114.109 62.7489 114.728C62.7489 115.091 62.6955 115.448 62.5889 115.8C62.4929 116.152 62.3115 116.525 62.0449 116.92C61.7889 117.304 61.4102 117.741 60.9089 118.232L56.6368 122.424L56.3168 121.976H63.2609V123H55.4048Z" fill="#9F9892"/>
<path d="M87.7836 123V112.28L88.2956 112.824H85.1436V111.8H88.9356V123H87.7836ZM94.9569 123.096C94.1462 123.096 93.3782 122.968 92.6529 122.712C91.9382 122.445 91.3622 122.093 90.9249 121.656L91.4849 120.744C91.8475 121.117 92.3329 121.427 92.9409 121.672C93.5595 121.917 94.2315 122.04 94.9569 122.04C95.8849 122.04 96.5942 121.837 97.0849 121.432C97.5862 121.027 97.8369 120.483 97.8369 119.8C97.8369 119.117 97.5915 118.573 97.1009 118.168C96.6209 117.763 95.8582 117.56 94.8129 117.56H94.0129V116.712L97.4689 112.376L97.6289 112.824H91.3889V111.8H98.5889V112.616L95.1329 116.952L94.5729 116.584H95.0048C96.3489 116.584 97.3515 116.883 98.0129 117.48C98.6849 118.077 99.0209 118.845 99.0209 119.784C99.0209 120.413 98.8715 120.979 98.5729 121.48C98.2742 121.981 97.8209 122.376 97.2129 122.664C96.6155 122.952 95.8635 123.096 94.9569 123.096Z" fill="#9F9892"/>
<path d="M123.784 123V112.28L124.296 112.824H121.144V111.8H124.936V123H123.784ZM127.421 120.056V119.224L133.357 111.8H134.637L128.749 119.224L128.125 119.032H137.133V120.056H127.421ZM133.741 123V120.056L133.773 119.032V116.44H134.893V123H133.741Z" fill="#9F9892"/>
<path d="M161.784 123V112.28L162.296 112.824H159.144V111.8H162.936V123H161.784ZM169.149 123.096C168.349 123.096 167.587 122.968 166.861 122.712C166.136 122.445 165.56 122.093 165.133 121.656L165.693 120.744C166.045 121.117 166.525 121.427 167.133 121.672C167.752 121.917 168.419 122.04 169.133 122.04C170.083 122.04 170.803 121.832 171.293 121.416C171.795 120.989 172.045 120.435 172.045 119.752C172.045 119.272 171.928 118.861 171.693 118.52C171.469 118.168 171.085 117.896 170.541 117.704C169.997 117.512 169.251 117.416 168.301 117.416H165.917L166.493 111.8H172.621V112.824H166.957L167.549 112.264L167.053 116.968L166.461 116.392H168.557C169.688 116.392 170.595 116.531 171.277 116.808C171.96 117.085 172.451 117.475 172.749 117.976C173.059 118.467 173.213 119.043 173.213 119.704C173.213 120.333 173.064 120.909 172.765 121.432C172.467 121.944 172.019 122.349 171.421 122.648C170.824 122.947 170.067 123.096 169.149 123.096Z" fill="#9F9892"/>
<path d="M197.784 123V112.28L198.296 112.824H195.144V111.8H198.936V123H197.784ZM206.205 123.096C205.213 123.096 204.376 122.877 203.693 122.44C203.011 121.992 202.493 121.352 202.141 120.52C201.789 119.677 201.613 118.669 201.613 117.496C201.613 116.227 201.827 115.165 202.253 114.312C202.691 113.448 203.293 112.797 204.061 112.36C204.829 111.923 205.72 111.704 206.733 111.704C207.235 111.704 207.715 111.752 208.173 111.848C208.632 111.944 209.037 112.099 209.389 112.312L208.925 113.24C208.637 113.048 208.307 112.915 207.933 112.84C207.56 112.755 207.165 112.712 206.749 112.712C205.544 112.712 204.579 113.096 203.853 113.864C203.139 114.632 202.781 115.779 202.781 117.304C202.781 117.539 202.792 117.832 202.813 118.184C202.845 118.525 202.909 118.867 203.005 119.208L202.605 118.904C202.723 118.349 202.952 117.88 203.293 117.496C203.635 117.101 204.061 116.803 204.573 116.6C205.085 116.397 205.645 116.296 206.253 116.296C207 116.296 207.656 116.435 208.221 116.712C208.787 116.989 209.229 117.379 209.549 117.88C209.869 118.381 210.029 118.973 210.029 119.656C210.029 120.349 209.864 120.957 209.533 121.48C209.203 121.992 208.744 122.392 208.157 122.68C207.581 122.957 206.931 123.096 206.205 123.096ZM206.157 122.12C206.691 122.12 207.16 122.024 207.565 121.832C207.981 121.629 208.307 121.347 208.541 120.984C208.776 120.611 208.893 120.179 208.893 119.688C208.893 118.952 208.637 118.365 208.125 117.928C207.624 117.491 206.941 117.272 206.077 117.272C205.501 117.272 205 117.379 204.573 117.592C204.147 117.805 203.811 118.099 203.565 118.472C203.32 118.835 203.197 119.251 203.197 119.72C203.197 120.125 203.309 120.515 203.533 120.888C203.757 121.251 204.088 121.549 204.525 121.784C204.973 122.008 205.517 122.12 206.157 122.12Z" fill="#9F9892"/>
<path d="M234.784 123V112.28L235.296 112.824H232.144V111.8H235.936V123H234.784ZM240.581 123L245.413 112.312L245.765 112.824H238.837L239.429 112.264V114.92H238.293V111.8H246.517V112.616L241.829 123H240.581Z" fill="#9F9892"/>
<path d="M271.784 123V112.28L272.296 112.824H269.144V111.8H272.936V123H271.784ZM279.869 123.096C278.973 123.096 278.2 122.968 277.549 122.712C276.909 122.456 276.413 122.088 276.061 121.608C275.72 121.117 275.549 120.541 275.549 119.88C275.549 119.24 275.715 118.696 276.045 118.248C276.387 117.789 276.877 117.437 277.517 117.192C278.168 116.947 278.952 116.824 279.869 116.824C280.776 116.824 281.555 116.947 282.205 117.192C282.856 117.437 283.352 117.789 283.693 118.248C284.045 118.696 284.221 119.24 284.221 119.88C284.221 120.541 284.045 121.117 283.693 121.608C283.341 122.088 282.84 122.456 282.189 122.712C281.539 122.968 280.765 123.096 279.869 123.096ZM279.869 122.12C280.861 122.12 281.635 121.917 282.189 121.512C282.755 121.107 283.037 120.557 283.037 119.864C283.037 119.171 282.755 118.627 282.189 118.232C281.635 117.827 280.861 117.624 279.869 117.624C278.877 117.624 278.104 117.827 277.549 118.232C276.995 118.627 276.717 119.171 276.717 119.864C276.717 120.557 276.995 121.107 277.549 121.512C278.104 121.917 278.877 122.12 279.869 122.12ZM279.869 116.712C280.744 116.712 281.427 116.531 281.917 116.168C282.408 115.805 282.653 115.32 282.653 114.712C282.653 114.072 282.397 113.576 281.885 113.224C281.384 112.861 280.712 112.68 279.869 112.68C279.027 112.68 278.355 112.861 277.853 113.224C277.352 113.576 277.101 114.067 277.101 114.696C277.101 115.315 277.341 115.805 277.821 116.168C278.312 116.531 278.995 116.712 279.869 116.712ZM279.869 117.48C279.037 117.48 278.328 117.368 277.741 117.144C277.165 116.92 276.723 116.6 276.413 116.184C276.104 115.757 275.949 115.251 275.949 114.664C275.949 114.045 276.109 113.517 276.429 113.08C276.76 112.632 277.219 112.291 277.805 112.056C278.392 111.821 279.08 111.704 279.869 111.704C280.659 111.704 281.347 111.821 281.933 112.056C282.531 112.291 282.995 112.632 283.325 113.08C283.656 113.517 283.821 114.045 283.821 114.664C283.821 115.251 283.667 115.757 283.357 116.184C283.048 116.6 282.595 116.92 281.997 117.144C281.411 117.368 280.701 117.48 279.869 117.48Z" fill="#9F9892"/>
<path d="M51.7836 154V143.28L52.2956 143.824H49.1436V142.8H52.9356V154H51.7836ZM58.5728 154.096C58.0715 154.096 57.5915 154.048 57.1328 153.952C56.6848 153.856 56.2795 153.701 55.9168 153.488L56.3808 152.56C56.6688 152.752 56.9995 152.891 57.3728 152.976C57.7568 153.051 58.1515 153.088 58.5568 153.088C59.7622 153.088 60.7222 152.704 61.4369 151.936C62.1622 151.168 62.5249 150.021 62.5249 148.496C62.5249 148.251 62.5089 147.957 62.4769 147.616C62.4555 147.275 62.3969 146.933 62.3009 146.592L62.7009 146.896C62.5942 147.451 62.3649 147.925 62.0129 148.32C61.6715 148.704 61.2449 148.997 60.7329 149.2C60.2315 149.403 59.6715 149.504 59.0529 149.504C58.3168 149.504 57.6608 149.365 57.0848 149.088C56.5195 148.811 56.0768 148.421 55.7568 147.92C55.4368 147.419 55.2768 146.827 55.2768 146.144C55.2768 145.44 55.4421 144.832 55.7728 144.32C56.1035 143.808 56.5568 143.413 57.1328 143.136C57.7195 142.848 58.3755 142.704 59.1009 142.704C60.0929 142.704 60.9302 142.928 61.6129 143.376C62.2955 143.813 62.8129 144.448 63.1649 145.28C63.5169 146.112 63.6929 147.12 63.6929 148.304C63.6929 149.563 63.4742 150.624 63.0369 151.488C62.6102 152.352 62.0129 153.003 61.2449 153.44C60.4769 153.877 59.5862 154.096 58.5728 154.096ZM59.2289 148.528C59.8049 148.528 60.3062 148.421 60.7329 148.208C61.1702 147.995 61.5062 147.701 61.7409 147.328C61.9862 146.955 62.1089 146.539 62.1089 146.08C62.1089 145.664 61.9969 145.275 61.7729 144.912C61.5489 144.549 61.2182 144.256 60.7809 144.032C60.3435 143.797 59.7995 143.68 59.1489 143.68C58.6155 143.68 58.1408 143.781 57.7248 143.984C57.3195 144.176 56.9995 144.453 56.7648 144.816C56.5301 145.179 56.4128 145.611 56.4128 146.112C56.4128 146.848 56.6635 147.435 57.1648 147.872C57.6768 148.309 58.3648 148.528 59.2289 148.528Z" fill="#9F9892"/>
<path d="M83.6241 154V153.184L88.2801 148.624C88.7068 148.208 89.0268 147.845 89.2401 147.536C89.4534 147.216 89.5974 146.917 89.6721 146.64C89.7468 146.363 89.7841 146.101 89.7841 145.856C89.7841 145.205 89.5601 144.693 89.1121 144.32C88.6748 143.947 88.0241 143.76 87.1601 143.76C86.4988 143.76 85.9121 143.861 85.4001 144.064C84.8988 144.267 84.4668 144.581 84.1041 145.008L83.2881 144.304C83.7254 143.792 84.2854 143.397 84.9681 143.12C85.6508 142.843 86.4134 142.704 87.2561 142.704C88.0134 142.704 88.6694 142.827 89.2241 143.072C89.7788 143.307 90.2054 143.653 90.5041 144.112C90.8134 144.571 90.9681 145.109 90.9681 145.728C90.9681 146.091 90.9148 146.448 90.8081 146.8C90.7121 147.152 90.5308 147.525 90.2641 147.92C90.0081 148.304 89.6294 148.741 89.1281 149.232L84.8561 153.424L84.5361 152.976H91.4801V154H83.6241ZM97.3586 154.096C96.4946 154.096 95.7266 153.872 95.0546 153.424C94.3826 152.965 93.8546 152.315 93.4706 151.472C93.0866 150.619 92.8946 149.595 92.8946 148.4C92.8946 147.205 93.0866 146.187 93.4706 145.344C93.8546 144.491 94.3826 143.84 95.0546 143.392C95.7266 142.933 96.4946 142.704 97.3586 142.704C98.2226 142.704 98.9906 142.933 99.6626 143.392C100.335 143.84 100.863 144.491 101.247 145.344C101.641 146.187 101.839 147.205 101.839 148.4C101.839 149.595 101.641 150.619 101.247 151.472C100.863 152.315 100.335 152.965 99.6626 153.424C98.9906 153.872 98.2226 154.096 97.3586 154.096ZM97.3586 153.04C98.0199 153.04 98.5959 152.864 99.0866 152.512C99.5773 152.149 99.9613 151.627 100.239 150.944C100.516 150.251 100.655 149.403 100.655 148.4C100.655 147.397 100.516 146.555 100.239 145.872C99.9613 145.179 99.5773 144.656 99.0866 144.304C98.5959 143.941 98.0199 143.76 97.3586 143.76C96.7186 143.76 96.1479 143.941 95.6466 144.304C95.1453 144.656 94.7559 145.179 94.4786 145.872C94.2013 146.555 94.0626 147.397 94.0626 148.4C94.0626 149.403 94.2013 150.251 94.4786 150.944C94.7559 151.627 95.1453 152.149 95.6466 152.512C96.1479 152.864 96.7186 153.04 97.3586 153.04Z" fill="#9F9892"/>
<path d="M121.624 154V153.184L126.28 148.624C126.707 148.208 127.027 147.845 127.24 147.536C127.453 147.216 127.597 146.917 127.672 146.64C127.747 146.363 127.784 146.101 127.784 145.856C127.784 145.205 127.56 144.693 127.112 144.32C126.675 143.947 126.024 143.76 125.16 143.76C124.499 143.76 123.912 143.861 123.4 144.064C122.899 144.267 122.467 144.581 122.104 145.008L121.288 144.304C121.725 143.792 122.285 143.397 122.968 143.12C123.651 142.843 124.413 142.704 125.256 142.704C126.013 142.704 126.669 142.827 127.224 143.072C127.779 143.307 128.205 143.653 128.504 144.112C128.813 144.571 128.968 145.109 128.968 145.728C128.968 146.091 128.915 146.448 128.808 146.8C128.712 147.152 128.531 147.525 128.264 147.92C128.008 148.304 127.629 148.741 127.128 149.232L122.856 153.424L122.536 152.976H129.48V154H121.624ZM132.878 154V143.28L133.39 143.824H130.238V142.8H134.03V154H132.878Z" fill="#9F9892"/>
<path d="M154.624 154V153.184L159.28 148.624C159.707 148.208 160.027 147.845 160.24 147.536C160.453 147.216 160.597 146.917 160.672 146.64C160.747 146.363 160.784 146.101 160.784 145.856C160.784 145.205 160.56 144.693 160.112 144.32C159.675 143.947 159.024 143.76 158.16 143.76C157.499 143.76 156.912 143.861 156.4 144.064C155.899 144.267 155.467 144.581 155.104 145.008L154.288 144.304C154.725 143.792 155.285 143.397 155.968 143.12C156.651 142.843 157.413 142.704 158.256 142.704C159.013 142.704 159.669 142.827 160.224 143.072C160.779 143.307 161.205 143.653 161.504 144.112C161.813 144.571 161.968 145.109 161.968 145.728C161.968 146.091 161.915 146.448 161.808 146.8C161.712 147.152 161.531 147.525 161.264 147.92C161.008 148.304 160.629 148.741 160.128 149.232L155.856 153.424L155.536 152.976H162.48V154H154.624ZM163.718 154V153.184L168.374 148.624C168.8 148.208 169.12 147.845 169.334 147.536C169.547 147.216 169.691 146.917 169.766 146.64C169.84 146.363 169.878 146.101 169.878 145.856C169.878 145.205 169.654 144.693 169.206 144.32C168.768 143.947 168.118 143.76 167.254 143.76C166.592 143.76 166.006 143.861 165.494 144.064C164.992 144.267 164.56 144.581 164.198 145.008L163.382 144.304C163.819 143.792 164.379 143.397 165.062 143.12C165.744 142.843 166.507 142.704 167.35 142.704C168.107 142.704 168.763 142.827 169.318 143.072C169.872 143.307 170.299 143.653 170.598 144.112C170.907 144.571 171.062 145.109 171.062 145.728C171.062 146.091 171.008 146.448 170.902 146.8C170.806 147.152 170.624 147.525 170.358 147.92C170.102 148.304 169.723 148.741 169.222 149.232L164.95 153.424L164.63 152.976H171.574V154H163.718Z" fill="#9F9892"/>
<path d="M191.624 154V153.184L196.28 148.624C196.707 148.208 197.027 147.845 197.24 147.536C197.453 147.216 197.597 146.917 197.672 146.64C197.747 146.363 197.784 146.101 197.784 145.856C197.784 145.205 197.56 144.693 197.112 144.32C196.675 143.947 196.024 143.76 195.16 143.76C194.499 143.76 193.912 143.861 193.4 144.064C192.899 144.267 192.467 144.581 192.104 145.008L191.288 144.304C191.725 143.792 192.285 143.397 192.968 143.12C193.651 142.843 194.413 142.704 195.256 142.704C196.013 142.704 196.669 142.827 197.224 143.072C197.779 143.307 198.205 143.653 198.504 144.112C198.813 144.571 198.968 145.109 198.968 145.728C198.968 146.091 198.915 146.448 198.808 146.8C198.712 147.152 198.531 147.525 198.264 147.92C198.008 148.304 197.629 148.741 197.128 149.232L192.856 153.424L192.536 152.976H199.48V154H191.624ZM204.27 154.096C203.459 154.096 202.691 153.968 201.966 153.712C201.251 153.445 200.675 153.093 200.238 152.656L200.798 151.744C201.16 152.117 201.646 152.427 202.254 152.672C202.872 152.917 203.544 153.04 204.27 153.04C205.198 153.04 205.907 152.837 206.398 152.432C206.899 152.027 207.15 151.483 207.15 150.8C207.15 150.117 206.904 149.573 206.414 149.168C205.934 148.763 205.171 148.56 204.126 148.56H203.326V147.712L206.782 143.376L206.942 143.824H200.702V142.8H207.902V143.616L204.446 147.952L203.886 147.584H204.318C205.662 147.584 206.664 147.883 207.326 148.48C207.998 149.077 208.334 149.845 208.334 150.784C208.334 151.413 208.184 151.979 207.886 152.48C207.587 152.981 207.134 153.376 206.526 153.664C205.928 153.952 205.176 154.096 204.27 154.096Z" fill="#9F9892"/>
<path d="M228.624 154V153.184L233.28 148.624C233.707 148.208 234.027 147.845 234.24 147.536C234.453 147.216 234.597 146.917 234.672 146.64C234.747 146.363 234.784 146.101 234.784 145.856C234.784 145.205 234.56 144.693 234.112 144.32C233.675 143.947 233.024 143.76 232.16 143.76C231.499 143.76 230.912 143.861 230.4 144.064C229.899 144.267 229.467 144.581 229.104 145.008L228.288 144.304C228.725 143.792 229.285 143.397 229.968 143.12C230.651 142.843 231.413 142.704 232.256 142.704C233.013 142.704 233.669 142.827 234.224 143.072C234.779 143.307 235.205 143.653 235.504 144.112C235.813 144.571 235.968 145.109 235.968 145.728C235.968 146.091 235.915 146.448 235.808 146.8C235.712 147.152 235.531 147.525 235.264 147.92C235.008 148.304 234.629 148.741 234.128 149.232L229.856 153.424L229.536 152.976H236.48V154H228.624ZM237.374 151.056V150.224L243.31 142.8H244.59L238.702 150.224L238.078 150.032H247.086V151.056H237.374ZM243.694 154V151.056L243.726 150.032V147.44H244.846V154H243.694Z" fill="#9F9892"/>
<path d="M266.624 154V153.184L271.28 148.624C271.707 148.208 272.027 147.845 272.24 147.536C272.453 147.216 272.597 146.917 272.672 146.64C272.747 146.363 272.784 146.101 272.784 145.856C272.784 145.205 272.56 144.693 272.112 144.32C271.675 143.947 271.024 143.76 270.16 143.76C269.499 143.76 268.912 143.861 268.4 144.064C267.899 144.267 267.467 144.581 267.104 145.008L266.288 144.304C266.725 143.792 267.285 143.397 267.968 143.12C268.651 142.843 269.413 142.704 270.256 142.704C271.013 142.704 271.669 142.827 272.224 143.072C272.779 143.307 273.205 143.653 273.504 144.112C273.813 144.571 273.968 145.109 273.968 145.728C273.968 146.091 273.915 146.448 273.808 146.8C273.712 147.152 273.531 147.525 273.264 147.92C273.008 148.304 272.629 148.741 272.128 149.232L267.856 153.424L267.536 152.976H274.48V154H266.624ZM279.462 154.096C278.662 154.096 277.899 153.968 277.174 153.712C276.448 153.445 275.872 153.093 275.446 152.656L276.006 151.744C276.358 152.117 276.838 152.427 277.446 152.672C278.064 152.917 278.731 153.04 279.446 153.04C280.395 153.04 281.115 152.832 281.606 152.416C282.107 151.989 282.358 151.435 282.358 150.752C282.358 150.272 282.24 149.861 282.006 149.52C281.782 149.168 281.398 148.896 280.854 148.704C280.31 148.512 279.563 148.416 278.614 148.416H276.23L276.806 142.8H282.934V143.824H277.27L277.862 143.264L277.366 147.968L276.774 147.392H278.87C280 147.392 280.907 147.531 281.59 147.808C282.272 148.085 282.763 148.475 283.062 148.976C283.371 149.467 283.526 150.043 283.526 150.704C283.526 151.333 283.376 151.909 283.078 152.432C282.779 152.944 282.331 153.349 281.734 153.648C281.136 153.947 280.379 154.096 279.462 154.096Z" fill="#9F9892"/>
<path d="M49.6241 185V184.184L54.2801 179.624C54.7068 179.208 55.0268 178.845 55.2401 178.536C55.4534 178.216 55.5974 177.917 55.6721 177.64C55.7468 177.363 55.7841 177.101 55.7841 176.856C55.7841 176.205 55.5601 175.693 55.1121 175.32C54.6748 174.947 54.0241 174.76 53.1601 174.76C52.4988 174.76 51.9121 174.861 51.4001 175.064C50.8988 175.267 50.4668 175.581 50.1041 176.008L49.2881 175.304C49.7254 174.792 50.2854 174.397 50.9681 174.12C51.6508 173.843 52.4134 173.704 53.2561 173.704C54.0134 173.704 54.6694 173.827 55.2241 174.072C55.7788 174.307 56.2054 174.653 56.5041 175.112C56.8134 175.571 56.9681 176.109 56.9681 176.728C56.9681 177.091 56.9148 177.448 56.8081 177.8C56.7121 178.152 56.5308 178.525 56.2641 178.92C56.0081 179.304 55.6294 179.741 55.1281 180.232L50.8561 184.424L50.5361 183.976H57.4801V185H49.6241ZM63.4866 185.096C62.4946 185.096 61.6573 184.877 60.9746 184.44C60.2919 183.992 59.7746 183.352 59.4226 182.52C59.0706 181.677 58.8946 180.669 58.8946 179.496C58.8946 178.227 59.1079 177.165 59.5346 176.312C59.9719 175.448 60.5746 174.797 61.3426 174.36C62.1106 173.923 63.0013 173.704 64.0146 173.704C64.5159 173.704 64.9959 173.752 65.4546 173.848C65.9133 173.944 66.3186 174.099 66.6706 174.312L66.2066 175.24C65.9186 175.048 65.5879 174.915 65.2146 174.84C64.8413 174.755 64.4466 174.712 64.0306 174.712C62.8253 174.712 61.8599 175.096 61.1346 175.864C60.4199 176.632 60.0626 177.779 60.0626 179.304C60.0626 179.539 60.0733 179.832 60.0946 180.184C60.1266 180.525 60.1906 180.867 60.2866 181.208L59.8866 180.904C60.0039 180.349 60.2333 179.88 60.5746 179.496C60.9159 179.101 61.3426 178.803 61.8546 178.6C62.3666 178.397 62.9266 178.296 63.5346 178.296C64.2813 178.296 64.9373 178.435 65.5026 178.712C66.0679 178.989 66.5106 179.379 66.8306 179.88C67.1506 180.381 67.3106 180.973 67.3106 181.656C67.3106 182.349 67.1453 182.957 66.8146 183.48C66.4839 183.992 66.0253 184.392 65.4386 184.68C64.8626 184.957 64.2119 185.096 63.4866 185.096ZM63.4386 184.12C63.9719 184.12 64.4413 184.024 64.8466 183.832C65.2626 183.629 65.5879 183.347 65.8226 182.984C66.0573 182.611 66.1746 182.179 66.1746 181.688C66.1746 180.952 65.9186 180.365 65.4066 179.928C64.9053 179.491 64.2226 179.272 63.3586 179.272C62.7826 179.272 62.2813 179.379 61.8546 179.592C61.4279 179.805 61.0919 180.099 60.8466 180.472C60.6013 180.835 60.4786 181.251 60.4786 181.72C60.4786 182.125 60.5906 182.515 60.8146 182.888C61.0386 183.251 61.3693 183.549 61.8066 183.784C62.2546 184.008 62.7986 184.12 63.4386 184.12Z" fill="#9F9892"/>
<path d="M84.6241 185V184.184L89.2801 179.624C89.7068 179.208 90.0268 178.845 90.2401 178.536C90.4534 178.216 90.5974 177.917 90.6721 177.64C90.7468 177.363 90.7841 177.101 90.7841 176.856C90.7841 176.205 90.5601 175.693 90.1121 175.32C89.6748 174.947 89.0241 174.76 88.1601 174.76C87.4988 174.76 86.9121 174.861 86.4001 175.064C85.8988 175.267 85.4668 175.581 85.1041 176.008L84.2881 175.304C84.7254 174.792 85.2854 174.397 85.9681 174.12C86.6508 173.843 87.4134 173.704 88.2561 173.704C89.0134 173.704 89.6694 173.827 90.2241 174.072C90.7788 174.307 91.2054 174.653 91.5041 175.112C91.8134 175.571 91.9681 176.109 91.9681 176.728C91.9681 177.091 91.9148 177.448 91.8081 177.8C91.7121 178.152 91.5308 178.525 91.2641 178.92C91.0081 179.304 90.6294 179.741 90.1281 180.232L85.8561 184.424L85.5361 183.976H92.4801V185H84.6241ZM95.8626 185L100.695 174.312L101.047 174.824H94.1186L94.7106 174.264V176.92H93.5746V173.8H101.799V174.616L97.1106 185H95.8626Z" fill="#9F9892"/>
<path d="M119.624 185V184.184L124.28 179.624C124.707 179.208 125.027 178.845 125.24 178.536C125.453 178.216 125.597 177.917 125.672 177.64C125.747 177.363 125.784 177.101 125.784 176.856C125.784 176.205 125.56 175.693 125.112 175.32C124.675 174.947 124.024 174.76 123.16 174.76C122.499 174.76 121.912 174.861 121.4 175.064C120.899 175.267 120.467 175.581 120.104 176.008L119.288 175.304C119.725 174.792 120.285 174.397 120.968 174.12C121.651 173.843 122.413 173.704 123.256 173.704C124.013 173.704 124.669 173.827 125.224 174.072C125.779 174.307 126.205 174.653 126.504 175.112C126.813 175.571 126.968 176.109 126.968 176.728C126.968 177.091 126.915 177.448 126.808 177.8C126.712 178.152 126.531 178.525 126.264 178.92C126.008 179.304 125.629 179.741 125.128 180.232L120.856 184.424L120.536 183.976H127.48V185H119.624ZM133.182 185.096C132.286 185.096 131.512 184.968 130.862 184.712C130.222 184.456 129.726 184.088 129.374 183.608C129.032 183.117 128.862 182.541 128.862 181.88C128.862 181.24 129.027 180.696 129.358 180.248C129.699 179.789 130.19 179.437 130.83 179.192C131.48 178.947 132.264 178.824 133.182 178.824C134.088 178.824 134.867 178.947 135.518 179.192C136.168 179.437 136.664 179.789 137.006 180.248C137.358 180.696 137.534 181.24 137.534 181.88C137.534 182.541 137.358 183.117 137.006 183.608C136.654 184.088 136.152 184.456 135.502 184.712C134.851 184.968 134.078 185.096 133.182 185.096ZM133.182 184.12C134.174 184.12 134.947 183.917 135.502 183.512C136.067 183.107 136.35 182.557 136.35 181.864C136.35 181.171 136.067 180.627 135.502 180.232C134.947 179.827 134.174 179.624 133.182 179.624C132.19 179.624 131.416 179.827 130.862 180.232C130.307 180.627 130.03 181.171 130.03 181.864C130.03 182.557 130.307 183.107 130.862 183.512C131.416 183.917 132.19 184.12 133.182 184.12ZM133.182 178.712C134.056 178.712 134.739 178.531 135.23 178.168C135.72 177.805 135.966 177.32 135.966 176.712C135.966 176.072 135.71 175.576 135.198 175.224C134.696 174.861 134.024 174.68 133.182 174.68C132.339 174.68 131.667 174.861 131.166 175.224C130.664 175.576 130.414 176.067 130.414 176.696C130.414 177.315 130.654 177.805 131.134 178.168C131.624 178.531 132.307 178.712 133.182 178.712ZM133.182 179.48C132.35 179.48 131.64 179.368 131.054 179.144C130.478 178.92 130.035 178.6 129.726 178.184C129.416 177.757 129.262 177.251 129.262 176.664C129.262 176.045 129.422 175.517 129.742 175.08C130.072 174.632 130.531 174.291 131.118 174.056C131.704 173.821 132.392 173.704 133.182 173.704C133.971 173.704 134.659 173.821 135.246 174.056C135.843 174.291 136.307 174.632 136.638 175.08C136.968 175.517 137.134 176.045 137.134 176.664C137.134 177.251 136.979 177.757 136.67 178.184C136.36 178.6 135.907 178.92 135.31 179.144C134.723 179.368 134.014 179.48 133.182 179.48Z" fill="#9F9892"/>
<path d="M155.624 185V184.184L160.28 179.624C160.707 179.208 161.027 178.845 161.24 178.536C161.453 178.216 161.597 177.917 161.672 177.64C161.747 177.363 161.784 177.101 161.784 176.856C161.784 176.205 161.56 175.693 161.112 175.32C160.675 174.947 160.024 174.76 159.16 174.76C158.499 174.76 157.912 174.861 157.4 175.064C156.899 175.267 156.467 175.581 156.104 176.008L155.288 175.304C155.725 174.792 156.285 174.397 156.968 174.12C157.651 173.843 158.413 173.704 159.256 173.704C160.013 173.704 160.669 173.827 161.224 174.072C161.779 174.307 162.205 174.653 162.504 175.112C162.813 175.571 162.968 176.109 162.968 176.728C162.968 177.091 162.915 177.448 162.808 177.8C162.712 178.152 162.531 178.525 162.264 178.92C162.008 179.304 161.629 179.741 161.128 180.232L156.856 184.424L156.536 183.976H163.48V185H155.624ZM167.886 185.096C167.384 185.096 166.904 185.048 166.446 184.952C165.998 184.856 165.592 184.701 165.23 184.488L165.694 183.56C165.982 183.752 166.312 183.891 166.686 183.976C167.07 184.051 167.464 184.088 167.87 184.088C169.075 184.088 170.035 183.704 170.75 182.936C171.475 182.168 171.838 181.021 171.838 179.496C171.838 179.251 171.822 178.957 171.79 178.616C171.768 178.275 171.71 177.933 171.614 177.592L172.014 177.896C171.907 178.451 171.678 178.925 171.326 179.32C170.984 179.704 170.558 179.997 170.046 180.2C169.544 180.403 168.984 180.504 168.366 180.504C167.63 180.504 166.974 180.365 166.398 180.088C165.832 179.811 165.39 179.421 165.07 178.92C164.75 178.419 164.59 177.827 164.59 177.144C164.59 176.44 164.755 175.832 165.086 175.32C165.416 174.808 165.87 174.413 166.446 174.136C167.032 173.848 167.688 173.704 168.414 173.704C169.406 173.704 170.243 173.928 170.926 174.376C171.608 174.813 172.126 175.448 172.478 176.28C172.83 177.112 173.006 178.12 173.006 179.304C173.006 180.563 172.787 181.624 172.35 182.488C171.923 183.352 171.326 184.003 170.558 184.44C169.79 184.877 168.899 185.096 167.886 185.096ZM168.542 179.528C169.118 179.528 169.619 179.421 170.046 179.208C170.483 178.995 170.819 178.701 171.054 178.328C171.299 177.955 171.422 177.539 171.422 177.08C171.422 176.664 171.31 176.275 171.086 175.912C170.862 175.549 170.531 175.256 170.094 175.032C169.656 174.797 169.112 174.68 168.462 174.68C167.928 174.68 167.454 174.781 167.038 174.984C166.632 175.176 166.312 175.453 166.078 175.816C165.843 176.179 165.726 176.611 165.726 177.112C165.726 177.848 165.976 178.435 166.478 178.872C166.99 179.309 167.678 179.528 168.542 179.528Z" fill="#9F9892"/>
<path d="M194.176 185.096C193.365 185.096 192.597 184.968 191.872 184.712C191.157 184.445 190.581 184.093 190.144 183.656L190.704 182.744C191.067 183.117 191.552 183.427 192.16 183.672C192.779 183.917 193.451 184.04 194.176 184.04C195.104 184.04 195.813 183.837 196.304 183.432C196.805 183.027 197.056 182.483 197.056 181.8C197.056 181.117 196.811 180.573 196.32 180.168C195.84 179.763 195.077 179.56 194.032 179.56H193.232V178.712L196.688 174.376L196.848 174.824H190.608V173.8H197.808V174.616L194.352 178.952L193.792 178.584H194.224C195.568 178.584 196.571 178.883 197.232 179.48C197.904 180.077 198.24 180.845 198.24 181.784C198.24 182.413 198.091 182.979 197.792 183.48C197.493 183.981 197.04 184.376 196.432 184.664C195.835 184.952 195.083 185.096 194.176 185.096ZM204.327 185.096C203.463 185.096 202.695 184.872 202.023 184.424C201.351 183.965 200.823 183.315 200.439 182.472C200.055 181.619 199.863 180.595 199.863 179.4C199.863 178.205 200.055 177.187 200.439 176.344C200.823 175.491 201.351 174.84 202.023 174.392C202.695 173.933 203.463 173.704 204.327 173.704C205.191 173.704 205.959 173.933 206.631 174.392C207.303 174.84 207.831 175.491 208.215 176.344C208.61 177.187 208.807 178.205 208.807 179.4C208.807 180.595 208.61 181.619 208.215 182.472C207.831 183.315 207.303 183.965 206.631 184.424C205.959 184.872 205.191 185.096 204.327 185.096ZM204.327 184.04C204.989 184.04 205.565 183.864 206.055 183.512C206.546 183.149 206.93 182.627 207.207 181.944C207.485 181.251 207.623 180.403 207.623 179.4C207.623 178.397 207.485 177.555 207.207 176.872C206.93 176.179 206.546 175.656 206.055 175.304C205.565 174.941 204.989 174.76 204.327 174.76C203.687 174.76 203.117 174.941 202.615 175.304C202.114 175.656 201.725 176.179 201.447 176.872C201.17 177.555 201.031 178.397 201.031 179.4C201.031 180.403 201.17 181.251 201.447 181.944C201.725 182.627 202.114 183.149 202.615 183.512C203.117 183.864 203.687 184.04 204.327 184.04Z" fill="#9F9892"/>
<path d="M230.176 185.096C229.365 185.096 228.597 184.968 227.872 184.712C227.157 184.445 226.581 184.093 226.144 183.656L226.704 182.744C227.067 183.117 227.552 183.427 228.16 183.672C228.779 183.917 229.451 184.04 230.176 184.04C231.104 184.04 231.813 183.837 232.304 183.432C232.805 183.027 233.056 182.483 233.056 181.8C233.056 181.117 232.811 180.573 232.32 180.168C231.84 179.763 231.077 179.56 230.032 179.56H229.232V178.712L232.688 174.376L232.848 174.824H226.608V173.8H233.808V174.616L230.352 178.952L229.792 178.584H230.224C231.568 178.584 232.571 178.883 233.232 179.48C233.904 180.077 234.24 180.845 234.24 181.784C234.24 182.413 234.091 182.979 233.792 183.48C233.493 183.981 233.04 184.376 232.432 184.664C231.835 184.952 231.083 185.096 230.176 185.096ZM237.815 185V174.28L238.327 174.824H235.175V173.8H238.967V185H237.815Z" fill="#9F9892"/>
</svg>
