<svg width="80" height="80" viewBox="0 0 80 80" fill="none" xmlns="http://www.w3.org/2000/svg">
<circle cx="40" cy="40" r="40" fill="#F4E8DB"/>
<path d="M9.5293 24.5698L8.58447 27.7778C8.64307 27.7876 8.70166 27.7925 8.76025 27.7925C9.01904 27.7925 9.31934 27.6729 9.66113 27.4336C10.5645 26.8037 11.0161 26.1543 11.0161 25.4854C11.0161 24.8164 10.6646 24.4819 9.96143 24.4819C9.76611 24.4819 9.62207 24.5112 9.5293 24.5698ZM8.43066 28.3345C8.40625 28.4321 8.36719 28.5762 8.31348 28.7666C7.89355 30.1826 7.47852 31.2227 7.06836 31.8867C6.93164 32.1064 6.75586 32.3237 6.54102 32.5386C7.4834 32.8267 8.15479 32.9707 8.55518 32.9707C9.11182 32.9707 9.57568 32.79 9.94678 32.4287C10.5962 31.7939 10.9209 31.0786 10.9209 30.2827C10.9209 29.8823 10.7817 29.543 10.5034 29.2646C10.269 29.0303 9.8833 28.8643 9.34619 28.7666C8.92627 28.6934 8.62109 28.5493 8.43066 28.3345ZM5.2373 29.2939L6.09424 26.6572C6.22607 26.2471 6.42627 25.7856 6.69482 25.2729C6.67041 25.2778 6.61426 25.3047 6.52637 25.3535C6.18945 25.4902 5.9502 25.5586 5.80859 25.5586C5.6084 25.5586 5.5083 25.4829 5.5083 25.3315C5.5083 25.1558 5.59131 24.9116 5.75732 24.5991C5.91846 24.3013 6.06982 24.0864 6.21143 23.9546C6.96826 23.2466 8.32812 22.8926 10.291 22.8926C11.4043 22.8926 12.2783 23.0781 12.9131 23.4492C13.5479 23.8203 13.8652 24.3281 13.8652 24.9727C13.8652 25.832 13.4795 26.5522 12.708 27.1333C12.2734 27.4604 11.8535 27.6802 11.4482 27.7925C11.3848 27.8071 11.3091 27.8218 11.2212 27.8364V27.873C12.9351 28.0928 13.792 28.8008 13.792 29.9971C13.792 30.4951 13.6357 30.998 13.3232 31.5059C13.1719 31.7451 12.9863 31.9722 12.7666 32.187C12.1318 32.8022 11.3286 33.3687 10.3569 33.8862C9.24854 34.4673 8.30859 34.7578 7.53711 34.7578C6.69727 34.7578 6.04541 34.5991 5.58154 34.2817C5.37158 34.1353 5.2666 33.979 5.2666 33.813C5.2666 33.5444 5.4668 33.2393 5.86719 32.8975L5.83789 32.8682C5.70605 32.917 5.57666 32.9414 5.44971 32.9414C4.84912 32.9414 4.54883 32.6509 4.54883 32.0698C4.54883 31.6304 4.77832 30.7051 5.2373 29.2939ZM15.5571 32.1357L15.4399 32.3628C15.3179 32.6021 15.2397 32.7412 15.2056 32.7803C15.0981 32.9219 14.9663 32.9927 14.8101 32.9927C14.4097 32.9927 14.2095 32.541 14.2095 31.6377C14.2095 31.1592 14.2949 30.749 14.4658 30.4072C14.8271 29.6797 15.4521 28.7593 16.3408 27.646C17.293 26.4497 17.9888 25.8516 18.4282 25.8516C18.8042 25.8516 19.1045 26.0957 19.3291 26.584C19.4316 26.8135 19.5513 27.2236 19.688 27.8145C19.9077 28.7959 20.0176 29.7261 20.0176 30.605C20.0176 31.938 19.8125 32.7339 19.4023 32.9927C19.251 33.0903 19.0703 33.1392 18.8604 33.1392C18.3574 33.1392 17.9912 33 17.7617 32.7217C17.5713 32.5312 17.4614 32.1382 17.4321 31.5425C17.4126 31.2007 17.4028 30.7271 17.4028 30.1216V28.2173H17.3735C17.2856 28.4126 17.21 28.5737 17.1465 28.7007C16.9805 29.0229 16.6777 29.6724 16.2383 30.6489C16.1553 30.854 15.9795 31.2446 15.7109 31.8208L15.5571 32.1357ZM26.1553 29.1914L26.0161 29.2354C25.7085 29.333 25.4546 29.3818 25.2544 29.3818C25.064 29.3818 24.9688 29.333 24.9688 29.2354C24.9688 29.2012 25.0078 29.1108 25.0859 28.9644C25.3594 28.5493 25.4961 28.1587 25.4961 27.7925C25.4961 27.646 25.4692 27.4849 25.4155 27.3091C25.3472 27.0747 25.2568 26.9575 25.1445 26.9575C25.0615 26.9575 24.9419 27.0405 24.7856 27.2065C23.7993 28.2612 23.3062 29.228 23.3062 30.1069C23.3062 30.3267 23.3477 30.5244 23.4307 30.7002C23.5381 30.9248 23.6895 31.0371 23.8848 31.0371C24.2168 31.0371 24.9175 30.4854 25.9868 29.3818L26.1846 29.2207L26.1553 29.1914ZM25.7158 30.8687V30.8979L25.6865 30.8687C24.8027 31.9038 24.0386 32.5947 23.394 32.9414C23.0718 33.1123 22.7764 33.1978 22.5078 33.1978C21.9512 33.1978 21.4971 33.0146 21.1455 32.6484C20.7939 32.2773 20.6182 31.8135 20.6182 31.2568C20.6182 30.4707 20.9478 29.5967 21.6069 28.6348C22.1001 27.917 22.7129 27.3066 23.4453 26.8037C24.2803 26.2324 25.0835 25.9468 25.855 25.9468C26.3677 25.9468 26.8267 26.0444 27.2319 26.2397C27.7446 26.4839 28.001 26.8379 28.001 27.3018C28.001 27.5898 27.9009 27.895 27.7007 28.2173C27.9448 28.2173 28.0986 28.2368 28.1621 28.2759C28.2549 28.3345 28.3013 28.4736 28.3013 28.6934C28.2915 28.7178 28.2793 28.8179 28.2646 28.9937C28.2354 29.3794 28.2207 29.8311 28.2207 30.3486C28.2207 30.6953 28.2329 30.9907 28.2573 31.2349C28.272 31.3862 28.2866 31.5034 28.3013 31.5864C28.3403 31.8159 28.4038 32.043 28.4917 32.2676C27.9253 32.8242 27.3711 33.1025 26.8291 33.1025C26.0771 33.1025 25.7012 32.4727 25.7012 31.2129C25.7012 31.0664 25.7061 30.9517 25.7158 30.8687ZM34.4243 29.4331V29.4624L34.395 29.4331C34.3706 29.4429 34.3315 29.4478 34.2778 29.4478C34.1997 29.4575 34.0825 29.4624 33.9263 29.4624C33.6772 29.4624 33.5527 29.416 33.5527 29.3232C33.5527 29.2793 33.5845 29.2207 33.6479 29.1475C34.0874 28.6543 34.3218 28.0684 34.3511 27.3896C34.3511 27.3604 34.356 27.3164 34.3657 27.2578C34.3755 27.1943 34.3804 27.1479 34.3804 27.1187C34.3804 27.0503 34.334 27.0161 34.2412 27.0161C34.0459 27.0161 33.7529 27.2212 33.3623 27.6313C32.8154 28.2075 32.4102 28.8813 32.1465 29.6528C32.0244 30.0142 31.9634 30.3389 31.9634 30.627C31.9634 30.9102 32.0342 31.0518 32.1758 31.0518C32.3174 31.0518 32.6616 30.8223 33.2085 30.3633C33.5015 30.1143 33.9067 29.8042 34.4243 29.4331ZM34.0508 30.9932L33.853 31.1396C33.8433 31.1494 33.7798 31.2007 33.6626 31.2935C32.1294 32.4897 31.0479 33.0879 30.418 33.0879C29.9883 33.0879 29.6538 32.9243 29.4146 32.5972C29.2046 32.3091 29.0996 31.9429 29.0996 31.4985C29.0996 30.2681 29.7148 29.0596 30.9453 27.873C32.1807 26.6816 33.4355 26.0859 34.71 26.0859C35.96 26.0859 36.585 26.5059 36.585 27.3457C36.585 27.6973 36.4458 28.1318 36.1675 28.6494C36.5532 28.6787 36.7461 28.9131 36.7461 29.3525C36.7461 30.2656 36.4775 31.4253 35.9404 32.8315C35.4277 34.1694 34.5586 35.1509 33.333 35.7759C32.7617 36.064 32.271 36.208 31.8608 36.208C31.5142 36.208 31.2065 36.0713 30.938 35.7979C30.6743 35.5293 30.5425 35.2217 30.5425 34.875C30.5425 34.3916 30.7524 33.9424 31.1724 33.5273C31.563 33.1416 32.1221 32.7754 32.8496 32.4287C32.9912 32.3604 33.0962 32.3262 33.1646 32.3262C33.2427 32.3262 33.2817 32.3652 33.2817 32.4434C33.2817 32.4775 33.2524 32.5435 33.1938 32.6411C33.0474 32.8853 32.918 33.2026 32.8057 33.5933C32.6934 33.9839 32.6372 34.3208 32.6372 34.604C32.6372 34.936 32.6885 35.1021 32.791 35.1021C32.9131 35.1021 33.0522 34.9067 33.2085 34.5161C33.6235 33.4663 33.8896 32.4897 34.0068 31.5864C34.0215 31.4839 34.0361 31.2861 34.0508 30.9932ZM41.7925 30.7075L41.668 30.8101C41.6338 30.8296 41.4702 30.9541 41.1772 31.1836C40.5474 31.6768 40.1592 31.9746 40.0127 32.0771C39.5439 32.4238 39.1313 32.6826 38.7749 32.8535C38.521 32.9805 38.3159 33.0439 38.1597 33.0439C37.8667 33.0439 37.6421 32.917 37.4858 32.6631C37.354 32.4482 37.2881 32.1846 37.2881 31.8721C37.2881 30.6318 37.6128 29.1816 38.2622 27.5215C38.5894 26.6865 38.9897 26.1738 39.4634 25.9834C39.644 25.9102 39.8394 25.8735 40.0493 25.8735C40.3618 25.8735 40.6108 25.9688 40.7964 26.1592C40.9868 26.3496 41.082 26.6011 41.082 26.9136C41.082 27.1284 41.0454 27.3555 40.9722 27.5947C40.9673 27.6143 40.8501 27.8999 40.6206 28.4517L40.5327 28.6641C40.1128 29.6797 39.9028 30.2192 39.9028 30.2827C39.9028 30.395 39.9419 30.4512 40.02 30.4512C40.1616 30.4512 40.4375 30.2119 40.8477 29.7334C41.0625 29.4844 41.2773 29.2524 41.4922 29.0376L41.7632 28.7666L41.9976 28.5176C42.3931 28.0977 42.7959 27.7437 43.2061 27.4556C43.5186 27.2407 43.7773 27.1333 43.9824 27.1333C44.373 27.1333 44.5684 27.4727 44.5684 28.1514C44.5684 28.2637 44.5513 28.5151 44.5171 28.9058C44.4585 29.5698 44.4292 30.1313 44.4292 30.5903C44.4292 30.6245 44.4292 30.6587 44.4292 30.6929C44.4292 30.7515 44.4316 30.8442 44.4365 30.9712C44.4414 31.103 44.4438 31.2031 44.4438 31.2715C44.4634 31.4668 44.4878 31.7183 44.5171 32.0259C44.5366 32.1968 44.5537 32.3359 44.5684 32.4434C44.5684 32.6289 44.3877 32.7754 44.0264 32.8828C43.7578 32.9609 43.5015 33 43.2573 33C42.603 33 42.1587 32.7534 41.9243 32.2603C41.8071 32.0161 41.7485 31.7183 41.7485 31.3667C41.7485 31.3813 41.7485 31.3887 41.7485 31.3887C41.7534 31.3887 41.7681 31.1616 41.7925 30.7075ZM50.5303 29.0962L50.8452 28.437C51.4067 27.2603 51.8926 26.5181 52.3027 26.2104C52.5078 26.0542 52.7251 25.9761 52.9546 25.9761C53.5845 25.9761 54.0752 26.8354 54.4268 28.5542C54.6074 29.4478 54.6978 30.2266 54.6978 30.8906C54.6978 31.8818 54.4561 32.5166 53.9727 32.7949C53.7188 32.9414 53.394 33.0146 52.9985 33.0146C52.6177 33.0146 52.4004 32.8291 52.3467 32.458C52.3125 32.2383 52.2954 31.9062 52.2954 31.4619C52.2954 30.6514 52.2563 29.8872 52.1782 29.1694C52.1685 29.1353 52.144 28.9399 52.105 28.5835H52.0684C52.0293 28.6616 52.0024 28.7202 51.9878 28.7593L51.9292 28.8911C51.6313 29.5454 51.3188 30.312 50.9917 31.1909C50.6646 32.0649 50.4399 32.5972 50.3179 32.7876C50.2837 32.8315 50.2373 32.8804 50.1787 32.9341C49.9443 33.1099 49.6099 33.1978 49.1753 33.1978C48.7554 33.1978 48.5063 33.0098 48.4282 32.6338C48.3843 32.4141 48.3599 32.0845 48.355 31.645C48.3403 30.7808 48.2036 29.6846 47.9448 28.3564C47.9009 28.1562 47.8276 27.8218 47.7251 27.353H47.6885C47.5859 27.6606 47.5127 27.9121 47.4688 28.1074C47.3271 28.7373 47.2563 29.6309 47.2563 30.7881V31.1177C47.2563 31.7573 47.1123 32.2236 46.8242 32.5166C46.4434 32.9121 46.0479 33.1099 45.6377 33.1099C45.2666 33.1099 45.0811 32.7705 45.0811 32.0918C45.0811 31.2861 45.2471 30.2876 45.5791 29.0962C45.8623 28.0757 46.2407 27.1357 46.7144 26.2764C47.0122 25.7295 47.3052 25.3901 47.5933 25.2583C47.7446 25.1851 47.918 25.1484 48.1133 25.1484C49.0361 25.1484 49.7222 25.9028 50.1714 27.4116C50.3032 27.8657 50.3911 28.2661 50.4351 28.6128C50.4595 28.7397 50.479 28.9009 50.4937 29.0962H50.5303ZM59.8101 30.7075L59.6855 30.8101C59.6514 30.8296 59.4878 30.9541 59.1948 31.1836C58.5649 31.6768 58.1768 31.9746 58.0303 32.0771C57.5615 32.4238 57.1489 32.6826 56.7925 32.8535C56.5386 32.9805 56.3335 33.0439 56.1772 33.0439C55.8843 33.0439 55.6597 32.917 55.5034 32.6631C55.3716 32.4482 55.3057 32.1846 55.3057 31.8721C55.3057 30.6318 55.6304 29.1816 56.2798 27.5215C56.6069 26.6865 57.0073 26.1738 57.481 25.9834C57.6616 25.9102 57.8569 25.8735 58.0669 25.8735C58.3794 25.8735 58.6284 25.9688 58.814 26.1592C59.0044 26.3496 59.0996 26.6011 59.0996 26.9136C59.0996 27.1284 59.063 27.3555 58.9897 27.5947C58.9849 27.6143 58.8677 27.8999 58.6382 28.4517L58.5503 28.6641C58.1304 29.6797 57.9204 30.2192 57.9204 30.2827C57.9204 30.395 57.9595 30.4512 58.0376 30.4512C58.1792 30.4512 58.4551 30.2119 58.8652 29.7334C59.0801 29.4844 59.2949 29.2524 59.5098 29.0376L59.7808 28.7666L60.0151 28.5176C60.4106 28.0977 60.8135 27.7437 61.2236 27.4556C61.5361 27.2407 61.7949 27.1333 62 27.1333C62.3906 27.1333 62.5859 27.4727 62.5859 28.1514C62.5859 28.2637 62.5688 28.5151 62.5347 28.9058C62.4761 29.5698 62.4468 30.1313 62.4468 30.5903C62.4468 30.6245 62.4468 30.6587 62.4468 30.6929C62.4468 30.7515 62.4492 30.8442 62.4541 30.9712C62.459 31.103 62.4614 31.2031 62.4614 31.2715C62.481 31.4668 62.5054 31.7183 62.5347 32.0259C62.5542 32.1968 62.5713 32.3359 62.5859 32.4434C62.5859 32.6289 62.4053 32.7754 62.0439 32.8828C61.7754 32.9609 61.519 33 61.2749 33C60.6206 33 60.1763 32.7534 59.9419 32.2603C59.8247 32.0161 59.7661 31.7183 59.7661 31.3667C59.7661 31.3813 59.7661 31.3887 59.7661 31.3887C59.771 31.3887 59.7856 31.1616 59.8101 30.7075ZM65.7939 31.3228C65.9307 31.7231 66.1895 31.9233 66.5703 31.9233C67.1416 31.9233 67.5786 31.4741 67.8813 30.5757C68.0181 30.1655 68.0864 29.7334 68.0864 29.2793C68.0864 28.3906 67.9961 27.9463 67.8154 27.9463C67.6885 27.9463 67.3638 28.376 66.8413 29.2354C66.4116 29.9385 66.1016 30.5244 65.9111 30.9932C65.8574 31.1201 65.8184 31.23 65.7939 31.3228ZM66.3579 28.188L66.585 27.7632C66.7461 27.4604 66.9463 27.1455 67.1855 26.8184C67.4932 26.3984 67.8228 26.1201 68.1743 25.9834C68.3403 25.9199 68.5161 25.8882 68.7017 25.8882C69.478 25.8882 70.0273 26.313 70.3496 27.1626C70.501 27.5728 70.5767 28.0439 70.5767 28.5762C70.5767 29.3232 70.4106 30.0459 70.0786 30.7441C69.7417 31.4619 69.2876 32.043 68.7163 32.4873C68.1499 32.9268 67.5688 33.1465 66.9731 33.1465C66.3237 33.1465 65.8208 32.8218 65.4644 32.1724L65.4131 32.2969L65.3691 32.458C65.1787 33.1465 64.9272 33.8984 64.6147 34.7139C64.4243 35.1924 64.2607 35.4854 64.124 35.5928C64.0166 35.6953 63.8921 35.7466 63.7505 35.7466C63.1597 35.7466 62.8643 35.2266 62.8643 34.1865C62.8643 33.0293 63.0864 31.6182 63.5308 29.9531C63.9165 28.4932 64.3291 27.4409 64.7686 26.7964C64.9688 26.5034 65.1592 26.291 65.3398 26.1592C65.4717 26.0811 65.6133 26.042 65.7646 26.042C66.2334 26.042 66.4678 26.2764 66.4678 26.7451C66.4678 26.9258 66.4482 27.1602 66.4092 27.4482C66.3604 27.834 66.3335 28.0684 66.3286 28.1514L66.3579 28.188Z" fill="#5D4631"/>
<path d="M37.625 40.833C38.0742 40.4424 38.3916 39.9346 38.5771 39.3096C38.665 39.0117 38.709 38.7041 38.709 38.3867C38.709 38.0303 38.6284 37.8521 38.4673 37.8521C38.1108 37.8521 37.8252 38.1914 37.6104 38.8701C37.5127 39.168 37.4639 39.4878 37.4639 39.8296C37.4639 40.1421 37.5176 40.4766 37.625 40.833ZM36.3506 43.5942C36.043 43.98 35.8892 44.3657 35.8892 44.7515C35.8892 45.02 35.9771 45.2471 36.1528 45.4326C36.3286 45.6182 36.5508 45.7109 36.8193 45.7109C37.0439 45.7109 37.2832 45.6353 37.5371 45.4839C37.4785 45.4204 37.4175 45.3398 37.354 45.2422C37.2271 45.0762 36.9634 44.6465 36.563 43.9531L36.4458 43.7407C36.4165 43.6968 36.3848 43.6479 36.3506 43.5942ZM38.1523 46.187L37.7788 46.4141C37.3882 46.6533 36.9609 46.8535 36.4971 47.0146C36.165 47.127 35.8208 47.1831 35.4644 47.1831C34.937 47.1831 34.4976 47.0317 34.146 46.729C33.7749 46.4067 33.5894 45.9868 33.5894 45.4692C33.5894 44.6929 34.2388 43.748 35.5376 42.6348C35.6108 42.5713 35.7231 42.4761 35.8745 42.3491C35.7427 41.729 35.6768 41.1943 35.6768 40.7451C35.6768 40.1006 35.8159 39.4854 36.0942 38.8994C36.3823 38.2891 36.7803 37.8008 37.2881 37.4346C37.7715 37.083 38.2842 36.9072 38.8262 36.9072C39.6807 36.9072 40.2788 37.1709 40.6206 37.6982C40.7866 37.957 40.8696 38.2524 40.8696 38.5845C40.8696 39.0825 40.6792 39.5537 40.2983 39.998C39.8589 40.5107 39.1143 41.1797 38.0645 42.0049C38.2305 42.4004 38.4941 42.8105 38.8555 43.2354C39.085 43.5039 39.3755 43.7896 39.7271 44.0923C39.8052 44.0679 39.8857 44.0166 39.9688 43.9385C40.0078 43.8994 40.0371 43.8799 40.0566 43.8799C40.1006 43.8799 40.1396 43.9043 40.1738 43.9531C40.1934 43.9922 40.2031 44.0166 40.2031 44.0264C40.2031 44.0557 40.1787 44.1021 40.1299 44.1655C40.0859 44.2095 40.0518 44.2632 40.0273 44.3267C40.501 44.6831 40.877 44.9346 41.1553 45.0811C41.4336 45.2227 41.5728 45.3325 41.5728 45.4106C41.5728 45.7329 41.3872 46.082 41.0161 46.458C40.6499 46.8291 40.2446 47.0146 39.8003 47.0146C39.2534 47.0146 38.7041 46.7388 38.1523 46.187Z" fill="#8D8C70"/>
<path d="M20.5303 52.7383L20.5889 53.2876C20.5986 53.3267 20.6133 53.478 20.6328 53.7417C20.7354 55.0649 20.9111 56.2588 21.1602 57.3232C21.2529 57.7236 21.3823 58.1484 21.5483 58.5977C21.7729 58.1484 21.9829 57.709 22.1782 57.2793C22.3296 56.9473 22.4492 56.6763 22.5371 56.4663C22.6787 56.1099 22.8887 55.5752 23.167 54.8623L23.4673 54.0493C23.4917 53.981 23.5918 53.7539 23.7676 53.3682C24.0459 52.7627 24.4902 52.2329 25.1006 51.7788C25.5742 51.4272 25.9502 51.2515 26.2285 51.2515C26.4189 51.2515 26.5142 51.3271 26.5142 51.4785C26.5142 51.5908 26.4629 51.769 26.3604 52.0132C26.0088 52.853 25.6426 53.6733 25.2617 54.4741C24.2314 56.6177 23.3428 58.2925 22.5957 59.4985C21.79 60.8022 21.0503 61.7617 20.3765 62.377C19.9663 62.748 19.4976 63.0483 18.9702 63.2778C18.6772 63.4048 18.377 63.4951 18.0693 63.5488C17.8398 63.5879 17.6494 63.6074 17.498 63.6074C16.9463 63.6074 16.6704 63.439 16.6704 63.1021C16.6704 62.897 16.7656 62.6064 16.9561 62.2305C17.1367 61.8838 17.3076 61.6226 17.4688 61.4468C17.5811 61.3296 17.8008 61.271 18.1279 61.271C18.4551 61.271 18.7505 61.2295 19.0142 61.1465C19.395 61.0244 19.7637 60.8462 20.1201 60.6118C19.3877 59.3618 18.8335 58.2168 18.4575 57.1768C17.8862 55.5898 17.6006 54.1396 17.6006 52.8262C17.6006 52.2256 17.7764 51.8154 18.1279 51.5957C18.8359 51.1562 19.4414 50.9365 19.9443 50.9365C20.1787 50.9365 20.3276 51.0659 20.3911 51.3247C20.4106 51.3931 20.4302 51.6177 20.4497 51.9985C20.4692 52.1841 20.4961 52.4307 20.5303 52.7383ZM28.0742 60.1357L27.957 60.3628C27.835 60.6021 27.7568 60.7412 27.7227 60.7803C27.6152 60.9219 27.4834 60.9927 27.3271 60.9927C26.9268 60.9927 26.7266 60.541 26.7266 59.6377C26.7266 59.1592 26.812 58.749 26.9829 58.4072C27.3442 57.6797 27.9692 56.7593 28.8579 55.646C29.8101 54.4497 30.5059 53.8516 30.9453 53.8516C31.3213 53.8516 31.6216 54.0957 31.8462 54.584C31.9487 54.8135 32.0684 55.2236 32.2051 55.8145C32.4248 56.7959 32.5347 57.7261 32.5347 58.605C32.5347 59.938 32.3296 60.7339 31.9194 60.9927C31.7681 61.0903 31.5874 61.1392 31.3774 61.1392C30.8745 61.1392 30.5083 61 30.2788 60.7217C30.0884 60.5312 29.9785 60.1382 29.9492 59.5425C29.9297 59.2007 29.9199 58.7271 29.9199 58.1216V56.2173H29.8906C29.8027 56.4126 29.7271 56.5737 29.6636 56.7007C29.4976 57.0229 29.1948 57.6724 28.7554 58.6489C28.6724 58.854 28.4966 59.2446 28.228 59.8208L28.0742 60.1357ZM38.8042 57.5796C38.7847 58.1411 38.6406 58.6611 38.3721 59.1396C38.0596 59.7061 37.6641 60.165 37.1855 60.5166C36.7412 60.8438 36.1992 61.0366 35.5596 61.0952C35.3691 61.1147 35.1958 61.1245 35.0396 61.1245C34.6685 61.1245 34.3877 61.0757 34.1973 60.978C33.9922 60.8755 33.8774 60.8169 33.853 60.8022C33.7407 60.729 33.6138 60.6069 33.4722 60.436C33.2427 60.1626 33.1157 59.7622 33.0913 59.2349C33.0864 59.1421 33.084 59.0469 33.084 58.9492C33.084 58.5684 33.123 58.1509 33.2012 57.6968C33.2988 57.1743 33.4795 56.6567 33.7432 56.144C34.1436 55.3726 34.6367 54.689 35.2227 54.0933C35.4424 53.8687 35.75 53.7563 36.1455 53.7563C36.7559 53.7563 37.0708 54.0322 37.0903 54.584C37.0903 54.5986 37.0903 54.6133 37.0903 54.6279C37.0903 54.8721 37 55.1479 36.8193 55.4556C36.7021 55.6509 36.5117 56.0757 36.248 56.73C36.3262 56.6421 36.4775 56.5103 36.7021 56.3345C36.9268 56.1587 37.188 56.0708 37.4858 56.0708C37.7446 56.0708 37.9912 56.1318 38.2256 56.2539C38.6113 56.4541 38.8042 56.8521 38.8042 57.4478C38.8042 57.4917 38.8042 57.5356 38.8042 57.5796ZM36.8926 58.876C36.7852 58.9102 36.6851 58.9272 36.5923 58.9272C36.4263 58.9272 36.2798 58.8735 36.1528 58.7661C35.9478 58.5952 35.8403 58.3535 35.8306 58.041C35.7769 58.1777 35.728 58.478 35.6841 58.9419C35.6792 59.0103 35.6768 59.0762 35.6768 59.1396C35.6768 59.4033 35.7329 59.6255 35.8452 59.8062C35.9526 59.9673 36.0845 60.0479 36.2407 60.0479C36.2651 60.0479 36.2896 60.0454 36.314 60.0405C36.4897 60.0161 36.6338 59.8745 36.7461 59.6157C36.8438 59.396 36.8926 59.1689 36.8926 58.9346C36.8926 58.915 36.8926 58.8955 36.8926 58.876ZM46.6411 59.7915C46.6265 59.8794 46.4507 60.0674 46.1138 60.3555C45.7231 60.6875 45.3398 60.895 44.9639 60.978C44.7832 61.0171 44.6221 61.0366 44.4805 61.0366C44.4219 61.0366 44.3682 61.0342 44.3193 61.0293C44.0312 60.9805 43.7944 60.7461 43.6089 60.3262C43.5161 60.1211 43.4502 59.7646 43.4111 59.2568C42.8936 60.2578 42.2075 61.0439 41.353 61.6152C40.9575 61.8789 40.5498 62.0107 40.1299 62.0107C39.7441 62.0107 39.4268 61.8838 39.1777 61.6299C38.9141 61.3613 38.7822 60.9829 38.7822 60.4946C38.7822 60.2505 38.8164 60.0356 38.8848 59.8501C39.041 59.4155 39.3071 59.1982 39.6831 59.1982C39.9175 59.1982 40.0933 59.2788 40.2104 59.4399C40.5181 59.7817 40.7817 59.9526 41.0015 59.9526C41.1919 59.9526 41.4092 59.877 41.6533 59.7256C42.0195 59.4961 42.4614 59.0469 42.979 58.3779C42.8325 58.5098 42.603 58.644 42.2905 58.7808C41.9341 58.937 41.6167 59.0225 41.3384 59.0371C41.3091 59.0371 41.2798 59.0371 41.2505 59.0371C40.7817 59.0371 40.4399 58.8809 40.2251 58.5684C40.0737 58.3535 39.998 58.0508 39.998 57.6602C39.998 57.1035 40.2324 56.4858 40.7012 55.8071C41.0479 55.2993 41.48 54.8672 41.9976 54.5107C42.5884 54.1104 43.1572 53.9102 43.7041 53.9102C44.0654 53.9102 44.3901 53.9785 44.6782 54.1152C45.0396 54.291 45.2202 54.54 45.2202 54.8623C45.2202 55.0674 45.1494 55.2847 45.0078 55.5142C45.042 55.5142 45.1543 55.4678 45.3447 55.375C45.54 55.2773 45.7012 55.2285 45.8281 55.2285C45.916 55.2285 45.9966 55.248 46.0698 55.2871C46.2554 55.3896 46.3481 55.5605 46.3481 55.7998C46.3481 55.834 46.3286 55.9854 46.2896 56.2539C46.2798 56.3369 46.209 56.6128 46.0771 57.0815C46.0088 57.2524 45.8989 57.5747 45.7476 58.0483C45.6304 58.4731 45.5718 58.7856 45.5718 58.9858C45.5718 59.3423 45.6768 59.5205 45.8867 59.5205C45.9453 59.5205 46.043 59.5083 46.1797 59.4839C46.3213 59.4546 46.4165 59.4399 46.4653 59.4399C46.5532 59.4399 46.6069 59.4766 46.6265 59.5498C46.6411 59.6035 46.6484 59.6572 46.6484 59.7109C46.6484 59.7354 46.646 59.7622 46.6411 59.7915ZM43.8359 56.2393C43.6309 56.3418 43.4722 56.3931 43.3599 56.3931C43.1792 56.3931 43.0889 56.3418 43.0889 56.2393C43.0889 56.1904 43.1133 56.1245 43.1621 56.0415C43.3525 55.7485 43.4478 55.4727 43.4478 55.2139C43.4478 54.8184 43.3647 54.6206 43.1987 54.6206C43.1401 54.6206 43.0571 54.6792 42.9497 54.7964C42.6519 55.1138 42.437 55.4653 42.3052 55.8511C42.188 56.1929 42.1294 56.481 42.1294 56.7153C42.1294 56.8716 42.1538 57.0034 42.2026 57.1108C42.2563 57.2231 42.3589 57.2793 42.5103 57.2793C42.7202 57.2793 42.9131 57.2109 43.0889 57.0742C43.3867 56.8447 43.6357 56.5664 43.8359 56.2393ZM51.9146 55.4775C52.0659 55.2725 52.2539 55.1113 52.4785 54.9941C52.6836 54.8867 52.8936 54.833 53.1084 54.833C53.4893 54.833 53.7505 54.9502 53.8921 55.1846C53.9995 55.3652 54.0532 55.6631 54.0532 56.0781C54.0532 56.293 54.0337 56.5737 53.9946 56.9204C53.936 57.438 53.9067 57.9019 53.9067 58.312C53.9067 58.8149 53.9312 59.2104 53.98 59.4985C53.9946 59.5767 54.0532 59.7866 54.1558 60.1284C54.1899 60.2456 54.207 60.3408 54.207 60.4141C54.207 60.4873 54.1777 60.5483 54.1191 60.5972C53.7285 60.9243 53.3184 61.0879 52.8887 61.0879C52.2979 61.0879 51.8706 60.729 51.6069 60.0112C51.5581 59.9038 51.4995 59.6426 51.4312 59.2275C51.4165 59.0322 51.4092 58.8564 51.4092 58.7002C51.4092 58.6074 51.4116 58.5195 51.4165 58.4365C50.8257 58.5977 50.3545 58.8711 50.0029 59.2568C49.876 59.3984 49.7466 59.5864 49.6147 59.8208C49.4634 60.104 49.3291 60.3213 49.2119 60.4727C49.0557 60.6826 48.9214 60.8535 48.8091 60.9854C48.6284 61.166 48.4233 61.2563 48.1938 61.2563C47.8569 61.2563 47.5933 61.127 47.4028 60.8682C47.2271 60.6338 47.1392 60.3433 47.1392 59.9966C47.1392 59.5522 47.2393 58.915 47.4395 58.085C47.6152 57.3477 47.8569 56.5786 48.1646 55.7778C48.6089 54.6206 49.1484 54.042 49.7832 54.042C50.291 54.042 50.5449 54.3716 50.5449 55.0308C50.5449 55.2798 50.4106 56.1685 50.1421 57.6968C50.4448 57.6138 50.7891 57.4917 51.1748 57.3306C51.3066 57.2085 51.4043 57.0474 51.4678 56.8472C51.5215 56.6616 51.5776 56.4736 51.6362 56.2832C51.6655 56.1025 51.7583 55.834 51.9146 55.4775ZM60.103 57.1914L59.9639 57.2354C59.6562 57.333 59.4023 57.3818 59.2021 57.3818C59.0117 57.3818 58.9165 57.333 58.9165 57.2354C58.9165 57.2012 58.9556 57.1108 59.0337 56.9644C59.3071 56.5493 59.4438 56.1587 59.4438 55.7925C59.4438 55.646 59.417 55.4849 59.3633 55.3091C59.2949 55.0747 59.2046 54.9575 59.0923 54.9575C59.0093 54.9575 58.8896 55.0405 58.7334 55.2065C57.7471 56.2612 57.2539 57.228 57.2539 58.1069C57.2539 58.3267 57.2954 58.5244 57.3784 58.7002C57.4858 58.9248 57.6372 59.0371 57.8325 59.0371C58.1646 59.0371 58.8652 58.4854 59.9346 57.3818L60.1323 57.2207L60.103 57.1914ZM59.6636 58.8687V58.8979L59.6343 58.8687C58.7505 59.9038 57.9863 60.5947 57.3418 60.9414C57.0195 61.1123 56.7241 61.1978 56.4556 61.1978C55.8989 61.1978 55.4448 61.0146 55.0933 60.6484C54.7417 60.2773 54.5659 59.8135 54.5659 59.2568C54.5659 58.4707 54.8955 57.5967 55.5547 56.6348C56.0479 55.917 56.6606 55.3066 57.3931 54.8037C58.228 54.2324 59.0312 53.9468 59.8027 53.9468C60.3154 53.9468 60.7744 54.0444 61.1797 54.2397C61.6924 54.4839 61.9487 54.8379 61.9487 55.3018C61.9487 55.5898 61.8486 55.895 61.6484 56.2173C61.8926 56.2173 62.0464 56.2368 62.1099 56.2759C62.2026 56.3345 62.249 56.4736 62.249 56.6934C62.2393 56.7178 62.2271 56.8179 62.2124 56.9937C62.1831 57.3794 62.1685 57.8311 62.1685 58.3486C62.1685 58.6953 62.1807 58.9907 62.2051 59.2349C62.2197 59.3862 62.2344 59.5034 62.249 59.5864C62.2881 59.8159 62.3516 60.043 62.4395 60.2676C61.873 60.8242 61.3188 61.1025 60.7769 61.1025C60.0249 61.1025 59.6489 60.4727 59.6489 59.2129C59.6489 59.0664 59.6538 58.9517 59.6636 58.8687Z" fill="#D4ADA5"/>
</svg>
