<svg width="385" height="426" viewBox="0 0 385 426" fill="none" xmlns="http://www.w3.org/2000/svg">
<path d="M39 58L303.845 58C334.279 58 354.849 89.051 342.98 117.075C336.324 132.79 320.912 143 303.845 143L70.5 143C49.237 143 32 160.237 32 181.5C32 202.763 49.237 220 70.5 220L297 220C318.815 220 336.5 237.685 336.5 259.5C336.5 281.315 318.777 299 296.962 299C204.164 299 161.509 299 53.5 299" stroke="#5D4631" stroke-dasharray="6 6"/>
<path d="M334.5 379L56.0968 379C39.0293 379 23.8418 368.171 18.2801 352.035C9.32732 326.06 28.623 299 56.0968 299L64.0001 299" stroke="#5D4631" stroke-dasharray="6 6"/>
<path d="M42.9688 12.7422L43.4375 11.5938C43.2344 11.6406 42.8672 11.7812 42.3359 12.0156C41.2734 12.4688 40.5859 12.6953 40.2734 12.6953C39.6328 12.6953 39.3125 12.1484 39.3125 11.0547C39.3125 9.83594 39.6328 8.96875 40.2734 8.45312C40.9141 7.9375 42.6953 7.04688 45.6172 5.78125L46.3203 5.47656C46.3359 5.46094 46.5625 5.35156 47 5.14844C49.125 4.13281 50.4531 3.625 50.9844 3.625C52.0781 3.625 52.625 4.19531 52.625 5.33594C52.625 6.47656 52.0781 8.54688 50.9844 11.5469C50.7031 12.3281 50.2891 13.5078 49.7422 15.0859C49.6797 15.2891 49.5938 15.5938 49.4844 16C48.9531 17.7656 48.5547 19.1406 48.2891 20.125C48.2422 20.2812 48.1406 20.6484 47.9844 21.2266L47.5859 22.6094C47.5234 22.7969 47.4375 23.0859 47.3281 23.4766C46.25 27.5391 45.375 30.1016 44.7031 31.1641C44.25 31.8828 43.3984 32.6016 42.1484 33.3203C41.2422 33.8359 40.2656 34.0938 39.2188 34.0938C38.5 34.0938 37.8203 33.8906 37.1797 33.4844C36.4609 33.0156 36.1016 32.4375 36.1016 31.75C36.1016 31.5781 36.1328 31.3984 36.1953 31.2109C38.4297 24.4766 40.6875 18.3203 42.9688 12.7422ZM63.9922 22.6797L62.3984 22.7734L58.1328 23.0078C56.2422 23.0078 55.1406 22.7734 54.8281 22.3047C54.6406 22.0547 54.5469 21.6797 54.5469 21.1797C54.5469 20.4609 55.1016 18.7188 56.2109 15.9531C56.6328 14.9219 57.0312 13.8984 57.4062 12.8828C57.8594 11.6328 58.6562 9.82813 59.7969 7.46875C59.875 7.32812 60.0078 7.10156 60.1953 6.78906C60.6797 6.02344 61.3047 5.38281 62.0703 4.86719C63.7734 3.74219 65.3594 3.17969 66.8281 3.17969C68.0156 3.17969 68.6094 3.46875 68.6094 4.04688C68.6094 4.8125 67.1172 7.3125 64.1328 11.5469C62.6797 13.6094 61.4141 15.5234 60.3359 17.2891L65.8203 17.0078C66.6016 14.4141 67.9375 12.7266 69.8281 11.9453C70.8125 11.5391 71.9531 11.3359 73.25 11.3359C74.4688 11.3359 75.0781 11.6562 75.0781 12.2969C75.0781 13.0312 74.6484 14.4766 73.7891 16.6328L73.6016 17.1016L74.6094 17.0078C74.9062 16.9766 75.1406 16.9609 75.3125 16.9609C75.6719 16.9609 75.8516 17.0547 75.8516 17.2422C75.8516 17.3047 75.8359 17.3516 75.8047 17.3828C75.2266 18.6641 74.375 19.9141 73.25 21.1328C72.875 21.5391 72.4453 21.8125 71.9609 21.9531C71.4141 23.75 70.7734 25.9062 70.0391 28.4219C70.0234 28.4844 69.9922 28.6719 69.9453 28.9844L69.875 29.2891C69.8594 29.3828 69.8516 29.4453 69.8516 29.4766C69.6172 30.7734 69.3125 31.5938 68.9375 31.9375C66.5156 33.375 64.5156 34.0938 62.9375 34.0938C62.3906 34.0938 61.875 33.9688 61.3906 33.7188C60.7812 33.4062 60.4766 33.0078 60.4766 32.5234C60.4766 31.6016 61.1172 29.5469 62.3984 26.3594C63.0234 24.8125 63.5547 23.5859 63.9922 22.6797ZM82.625 26.4062C83.2969 26.4062 83.9141 26.5312 84.4766 26.7812C85.1953 27.1094 85.5547 27.5625 85.5547 28.1406C85.5547 30.1094 84.5391 31.7969 82.5078 33.2031C81.6172 33.8281 80.7422 34.1406 79.8828 34.1406C78.3203 34.1406 77.5391 33.4688 77.5391 32.125C77.5391 30.875 78.0156 29.5469 78.9688 28.1406C79.3906 27.5156 79.9531 27.0703 80.6562 26.8047C81.375 26.5391 82.0156 26.4062 82.5781 26.4062H82.625ZM84.125 20.4531C83.4688 20.4531 82.8906 20.2266 82.3906 19.7734C81.9062 19.3203 81.6641 18.7656 81.6641 18.1094C81.6641 17.5 81.8516 16.7578 82.2266 15.8828C82.6172 14.9922 83.0391 14.3281 83.4922 13.8906C84.5547 12.8594 85.8984 12.3438 87.5234 12.3438C88.9922 12.3438 89.7266 12.7656 89.7266 13.6094V13.6562C89.7266 14.3594 89.4219 15.3984 88.8125 16.7734C88.375 17.7578 88.0078 18.4297 87.7109 18.7891C87.2891 19.3047 86.6719 19.7266 85.8594 20.0547C85.1875 20.3203 84.6094 20.4531 84.125 20.4531ZM101.539 22.6797L99.9453 22.7734L95.6797 23.0078C93.7891 23.0078 92.6875 22.7734 92.375 22.3047C92.1875 22.0547 92.0938 21.6797 92.0938 21.1797C92.0938 20.4609 92.6484 18.7188 93.7578 15.9531C94.1797 14.9219 94.5781 13.8984 94.9531 12.8828C95.4062 11.6328 96.2031 9.82813 97.3438 7.46875C97.4219 7.32812 97.5547 7.10156 97.7422 6.78906C98.2266 6.02344 98.8516 5.38281 99.6172 4.86719C101.32 3.74219 102.906 3.17969 104.375 3.17969C105.562 3.17969 106.156 3.46875 106.156 4.04688C106.156 4.8125 104.664 7.3125 101.68 11.5469C100.227 13.6094 98.9609 15.5234 97.8828 17.2891L103.367 17.0078C104.148 14.4141 105.484 12.7266 107.375 11.9453C108.359 11.5391 109.5 11.3359 110.797 11.3359C112.016 11.3359 112.625 11.6562 112.625 12.2969C112.625 13.0312 112.195 14.4766 111.336 16.6328L111.148 17.1016L112.156 17.0078C112.453 16.9766 112.688 16.9609 112.859 16.9609C113.219 16.9609 113.398 17.0547 113.398 17.2422C113.398 17.3047 113.383 17.3516 113.352 17.3828C112.773 18.6641 111.922 19.9141 110.797 21.1328C110.422 21.5391 109.992 21.8125 109.508 21.9531C108.961 23.75 108.32 25.9062 107.586 28.4219C107.57 28.4844 107.539 28.6719 107.492 28.9844L107.422 29.2891C107.406 29.3828 107.398 29.4453 107.398 29.4766C107.164 30.7734 106.859 31.5938 106.484 31.9375C104.062 33.375 102.062 34.0938 100.484 34.0938C99.9375 34.0938 99.4219 33.9688 98.9375 33.7188C98.3281 33.4062 98.0234 33.0078 98.0234 32.5234C98.0234 31.6016 98.6641 29.5469 99.9453 26.3594C100.57 24.8125 101.102 23.5859 101.539 22.6797ZM133.812 3.85938H134.047C135.891 3.85938 137.312 5.26562 138.312 8.07812C138.766 9.35938 138.992 10.7031 138.992 12.1094C138.992 15.0938 138.25 18.3516 136.766 21.8828C135.297 25.3516 133.477 28.1719 131.305 30.3438C128.836 32.8125 126.344 34.0469 123.828 34.0469C120.297 34.0469 117.797 32.4062 116.328 29.125C115.625 27.5625 115.273 25.7656 115.273 23.7344C115.273 20.3594 115.961 17.0859 117.336 13.9141C118.773 10.6328 120.75 7.95313 123.266 5.875C125.672 3.89062 128.148 2.89844 130.695 2.89844C131.93 2.89844 132.969 3.21875 133.812 3.85938ZM131.703 4.96094L132.125 4.72656L132.031 4.63281C129.984 4.66406 128.008 6.44531 126.102 9.97656C124.195 13.5078 123.242 17.1328 123.242 20.8516C123.242 23.6172 124.031 26.0312 125.609 28.0938C126.281 28.9844 126.93 29.4297 127.555 29.4297C128.586 29.4297 129.57 28.1953 130.508 25.7266C131.461 23.2422 132.109 20.8047 132.453 18.4141C132.625 17.1953 132.711 16.0859 132.711 15.0859C132.711 13.6797 132.5 12.2969 132.078 10.9375C131.578 9.34375 130.875 8.16406 129.969 7.39844C129.812 7.28906 129.734 7.17969 129.734 7.07031C129.734 6.71094 130.391 6.00781 131.703 4.96094Z" fill="#8D8C70"/>
<path d="M33.918 99.1C32.878 99.1 31.9447 98.8733 31.118 98.42C30.3047 97.9533 29.6647 97.32 29.198 96.52C28.7314 95.7067 28.498 94.78 28.498 93.74C28.498 92.6867 28.7314 91.76 29.198 90.96C29.6647 90.16 30.3047 89.5333 31.118 89.08C31.9447 88.6267 32.878 88.4 33.918 88.4C34.8114 88.4 35.618 88.5733 36.338 88.92C37.058 89.2667 37.6247 89.7867 38.038 90.48L36.978 91.2C36.618 90.6667 36.1714 90.2733 35.638 90.02C35.1047 89.7667 34.5247 89.64 33.898 89.64C33.1514 89.64 32.478 89.8133 31.878 90.16C31.278 90.4933 30.8047 90.9667 30.458 91.58C30.1114 92.1933 29.938 92.9133 29.938 93.74C29.938 94.5667 30.1114 95.2867 30.458 95.9C30.8047 96.5133 31.278 96.9933 31.878 97.34C32.478 97.6733 33.1514 97.84 33.898 97.84C34.5247 97.84 35.1047 97.7133 35.638 97.46C36.1714 97.2067 36.618 96.82 36.978 96.3L38.038 97.02C37.6247 97.7 37.058 98.22 36.338 98.58C35.618 98.9267 34.8114 99.1 33.918 99.1ZM45.5076 99.12C44.6542 99.12 43.8942 98.98 43.2276 98.7C42.5742 98.42 42.0142 97.9933 41.5476 97.42C41.0809 96.8467 40.7276 96.14 40.4876 95.3C40.2476 94.4467 40.1276 93.46 40.1276 92.34C40.1276 91.34 40.2209 90.4667 40.4076 89.72C40.5942 88.96 40.8542 88.3067 41.1876 87.76C41.5209 87.2133 41.9076 86.7533 42.3476 86.38C42.8009 85.9933 43.2876 85.6867 43.8076 85.46C44.3409 85.22 44.8876 85.04 45.4476 84.92L50.1676 83.82L50.4076 85.14L45.9676 86.14C45.6876 86.2067 45.3476 86.3 44.9476 86.42C44.5609 86.54 44.1609 86.72 43.7476 86.96C43.3476 87.2 42.9742 87.5333 42.6276 87.96C42.2809 88.3867 42.0009 88.94 41.7876 89.62C41.5876 90.2867 41.4876 91.12 41.4876 92.12C41.4876 92.3333 41.4942 92.5067 41.5076 92.64C41.5209 92.76 41.5342 92.8933 41.5476 93.04C41.5742 93.1733 41.5942 93.3733 41.6076 93.64L40.9876 93.12C41.1342 92.3067 41.4342 91.6 41.8876 91C42.3409 90.3867 42.9076 89.9133 43.5876 89.58C44.2809 89.2333 45.0476 89.06 45.8876 89.06C46.8609 89.06 47.7276 89.2733 48.4876 89.7C49.2476 90.1133 49.8409 90.6933 50.2676 91.44C50.7076 92.1867 50.9276 93.0533 50.9276 94.04C50.9276 95.0133 50.7009 95.8867 50.2476 96.66C49.8076 97.4333 49.1809 98.04 48.3676 98.48C47.5542 98.9067 46.6009 99.12 45.5076 99.12ZM45.6676 97.94C46.4142 97.94 47.0742 97.7733 47.6476 97.44C48.2209 97.0933 48.6676 96.6267 48.9876 96.04C49.3209 95.4533 49.4876 94.7933 49.4876 94.06C49.4876 93.34 49.3209 92.7 48.9876 92.14C48.6676 91.58 48.2209 91.14 47.6476 90.82C47.0742 90.4867 46.4076 90.32 45.6476 90.32C44.9009 90.32 44.2409 90.48 43.6676 90.8C43.0942 91.1067 42.6409 91.54 42.3076 92.1C41.9876 92.66 41.8276 93.3067 41.8276 94.04C41.8276 94.7733 41.9876 95.4333 42.3076 96.02C42.6409 96.6067 43.0942 97.0733 43.6676 97.42C44.2542 97.7667 44.9209 97.94 45.6676 97.94ZM58.2912 99.1C57.2778 99.1 56.3645 98.8733 55.5512 98.42C54.7512 97.9533 54.1178 97.32 53.6512 96.52C53.1845 95.7067 52.9512 94.78 52.9512 93.74C52.9512 92.6867 53.1845 91.76 53.6512 90.96C54.1178 90.16 54.7512 89.5333 55.5512 89.08C56.3512 88.6267 57.2645 88.4 58.2912 88.4C59.3312 88.4 60.2512 88.6267 61.0512 89.08C61.8645 89.5333 62.4978 90.16 62.9512 90.96C63.4178 91.76 63.6512 92.6867 63.6512 93.74C63.6512 94.78 63.4178 95.7067 62.9512 96.52C62.4978 97.32 61.8645 97.9533 61.0512 98.42C60.2378 98.8733 59.3178 99.1 58.2912 99.1ZM58.2912 97.84C59.0512 97.84 59.7245 97.6733 60.3112 97.34C60.8978 96.9933 61.3578 96.5133 61.6912 95.9C62.0378 95.2733 62.2112 94.5533 62.2112 93.74C62.2112 92.9133 62.0378 92.1933 61.6912 91.58C61.3578 90.9667 60.8978 90.4933 60.3112 90.16C59.7245 89.8133 59.0578 89.64 58.3112 89.64C57.5645 89.64 56.8978 89.8133 56.3112 90.16C55.7245 90.4933 55.2578 90.9667 54.9112 91.58C54.5645 92.1933 54.3912 92.9133 54.3912 93.74C54.3912 94.5533 54.5645 95.2733 54.9112 95.9C55.2578 96.5133 55.7245 96.9933 56.3112 97.34C56.8978 97.6733 57.5578 97.84 58.2912 97.84ZM72.106 99.1C71.1993 99.1 70.3793 98.8933 69.646 98.48C68.9127 98.0533 68.326 97.4467 67.886 96.66C67.4593 95.86 67.246 94.8867 67.246 93.74C67.246 92.5933 67.4593 91.6267 67.886 90.84C68.3127 90.04 68.8927 89.4333 69.626 89.02C70.3593 88.6067 71.186 88.4 72.106 88.4C73.106 88.4 73.9993 88.6267 74.786 89.08C75.586 89.52 76.2127 90.1467 76.666 90.96C77.1193 91.76 77.346 92.6867 77.346 93.74C77.346 94.8067 77.1193 95.74 76.666 96.54C76.2127 97.34 75.586 97.9667 74.786 98.42C73.9993 98.8733 73.106 99.1 72.106 99.1ZM66.686 102.88V88.5H68.046V91.66L67.906 93.76L68.106 95.88V102.88H66.686ZM72.006 97.84C72.7527 97.84 73.4193 97.6733 74.006 97.34C74.5927 96.9933 75.0593 96.5133 75.406 95.9C75.7527 95.2733 75.926 94.5533 75.926 93.74C75.926 92.9267 75.7527 92.2133 75.406 91.6C75.0593 90.9867 74.5927 90.5067 74.006 90.16C73.4193 89.8133 72.7527 89.64 72.006 89.64C71.2593 89.64 70.586 89.8133 69.986 90.16C69.3993 90.5067 68.9327 90.9867 68.586 91.6C68.2527 92.2133 68.086 92.9267 68.086 93.74C68.086 94.5533 68.2527 95.2733 68.586 95.9C68.9327 96.5133 69.3993 96.9933 69.986 97.34C70.586 97.6733 71.2593 97.84 72.006 97.84ZM85.6313 99V88.5H93.0713V89.74H86.6913L87.0513 89.38V99H85.6313ZM98.9552 99.1C97.9419 99.1 97.0286 98.8733 96.2152 98.42C95.4152 97.9533 94.7819 97.32 94.3152 96.52C93.8486 95.7067 93.6152 94.78 93.6152 93.74C93.6152 92.6867 93.8486 91.76 94.3152 90.96C94.7819 90.16 95.4152 89.5333 96.2152 89.08C97.0152 88.6267 97.9286 88.4 98.9552 88.4C99.9952 88.4 100.915 88.6267 101.715 89.08C102.529 89.5333 103.162 90.16 103.615 90.96C104.082 91.76 104.315 92.6867 104.315 93.74C104.315 94.78 104.082 95.7067 103.615 96.52C103.162 97.32 102.529 97.9533 101.715 98.42C100.902 98.8733 99.9819 99.1 98.9552 99.1ZM98.9552 97.84C99.7152 97.84 100.389 97.6733 100.975 97.34C101.562 96.9933 102.022 96.5133 102.355 95.9C102.702 95.2733 102.875 94.5533 102.875 93.74C102.875 92.9133 102.702 92.1933 102.355 91.58C102.022 90.9667 101.562 90.4933 100.975 90.16C100.389 89.8133 99.7219 89.64 98.9752 89.64C98.2286 89.64 97.5619 89.8133 96.9752 90.16C96.3886 90.4933 95.9219 90.9667 95.5752 91.58C95.2286 92.1933 95.0552 92.9133 95.0552 93.74C95.0552 94.5533 95.2286 95.2733 95.5752 95.9C95.9219 96.5133 96.3886 96.9933 96.9752 97.34C97.5619 97.6733 98.2219 97.84 98.9552 97.84ZM111.75 99.1C110.71 99.1 109.777 98.8733 108.95 98.42C108.137 97.9533 107.497 97.32 107.03 96.52C106.563 95.7067 106.33 94.78 106.33 93.74C106.33 92.6867 106.563 91.76 107.03 90.96C107.497 90.16 108.137 89.5333 108.95 89.08C109.777 88.6267 110.71 88.4 111.75 88.4C112.643 88.4 113.45 88.5733 114.17 88.92C114.89 89.2667 115.457 89.7867 115.87 90.48L114.81 91.2C114.45 90.6667 114.003 90.2733 113.47 90.02C112.937 89.7667 112.357 89.64 111.73 89.64C110.983 89.64 110.31 89.8133 109.71 90.16C109.11 90.4933 108.637 90.9667 108.29 91.58C107.943 92.1933 107.77 92.9133 107.77 93.74C107.77 94.5667 107.943 95.2867 108.29 95.9C108.637 96.5133 109.11 96.9933 109.71 97.34C110.31 97.6733 110.983 97.84 111.73 97.84C112.357 97.84 112.937 97.7133 113.47 97.46C114.003 97.2067 114.45 96.82 114.81 96.3L115.87 97.02C115.457 97.7 114.89 98.22 114.17 98.58C113.45 98.9267 112.643 99.1 111.75 99.1ZM120.424 99V89.36L120.784 89.74H116.444V88.5H125.824V89.74H121.484L121.844 89.36V99H120.424ZM131.889 99.1C130.796 99.1 129.836 98.8733 129.009 98.42C128.182 97.9533 127.536 97.32 127.069 96.52C126.602 95.7067 126.369 94.78 126.369 93.74C126.369 92.7 126.589 91.78 127.029 90.98C127.482 90.18 128.096 89.5533 128.869 89.1C129.656 88.6333 130.536 88.4 131.509 88.4C132.496 88.4 133.369 88.6267 134.129 89.08C134.902 89.52 135.509 90.1467 135.949 90.96C136.389 91.76 136.609 92.6867 136.609 93.74C136.609 93.8067 136.602 93.88 136.589 93.96C136.589 94.0267 136.589 94.1 136.589 94.18H127.449V93.12H135.829L135.269 93.54C135.269 92.78 135.102 92.1067 134.769 91.52C134.449 90.92 134.009 90.4533 133.449 90.12C132.889 89.7867 132.242 89.62 131.509 89.62C130.789 89.62 130.142 89.7867 129.569 90.12C128.996 90.4533 128.549 90.92 128.229 91.52C127.909 92.12 127.749 92.8067 127.749 93.58V93.8C127.749 94.6 127.922 95.3067 128.269 95.92C128.629 96.52 129.122 96.9933 129.749 97.34C130.389 97.6733 131.116 97.84 131.929 97.84C132.569 97.84 133.162 97.7267 133.709 97.5C134.269 97.2733 134.749 96.9267 135.149 96.46L135.949 97.38C135.482 97.94 134.896 98.3667 134.189 98.66C133.496 98.9533 132.729 99.1 131.889 99.1ZM139.752 99V88.5H141.172V96.84L148.192 88.5H149.452V99H148.032V90.64L141.032 99H139.752ZM144.512 86.98C143.632 86.98 142.919 86.76 142.372 86.32C141.839 85.8667 141.559 85.22 141.532 84.38H142.552C142.566 84.9133 142.752 85.3333 143.112 85.64C143.472 85.9467 143.939 86.1 144.512 86.1C145.086 86.1 145.552 85.9467 145.912 85.64C146.286 85.3333 146.479 84.9133 146.492 84.38H147.512C147.499 85.22 147.219 85.8667 146.672 86.32C146.126 86.76 145.406 86.98 144.512 86.98Z" fill="black"/>
<path d="M238.969 92.7422L239.438 91.5938C239.234 91.6406 238.867 91.7812 238.336 92.0156C237.273 92.4688 236.586 92.6953 236.273 92.6953C235.633 92.6953 235.312 92.1484 235.312 91.0547C235.312 89.8359 235.633 88.9688 236.273 88.4531C236.914 87.9375 238.695 87.0469 241.617 85.7812L242.32 85.4766C242.336 85.4609 242.562 85.3516 243 85.1484C245.125 84.1328 246.453 83.625 246.984 83.625C248.078 83.625 248.625 84.1953 248.625 85.3359C248.625 86.4766 248.078 88.5469 246.984 91.5469C246.703 92.3281 246.289 93.5078 245.742 95.0859C245.68 95.2891 245.594 95.5938 245.484 96C244.953 97.7656 244.555 99.1406 244.289 100.125C244.242 100.281 244.141 100.648 243.984 101.227L243.586 102.609C243.523 102.797 243.438 103.086 243.328 103.477C242.25 107.539 241.375 110.102 240.703 111.164C240.25 111.883 239.398 112.602 238.148 113.32C237.242 113.836 236.266 114.094 235.219 114.094C234.5 114.094 233.82 113.891 233.18 113.484C232.461 113.016 232.102 112.438 232.102 111.75C232.102 111.578 232.133 111.398 232.195 111.211C234.43 104.477 236.688 98.3203 238.969 92.7422ZM261.047 89.5312L259.312 92.6016L259.406 92.6953C261.484 91.8203 263.312 91.3828 264.891 91.3828C266.906 91.3828 268.5 91.8281 269.672 92.7188C271 93.7344 271.664 95.2109 271.664 97.1484C271.664 99.0234 271.148 101 270.117 103.078C269.086 105.156 267.602 107.18 265.664 109.148C262.414 112.445 259.5 114.094 256.922 114.094C255.016 114.094 253.383 113.422 252.023 112.078C250.867 110.938 250.289 109.305 250.289 107.18C250.289 103.133 252.031 100.258 255.516 98.5547C256.578 98.0391 257.508 97.7812 258.305 97.7812C259.148 97.7812 259.57 98.0156 259.57 98.4844V98.5547C258.461 99.8672 257.609 101.289 257.016 102.82C256.406 104.398 256.102 106.219 256.102 108.281C256.102 109.891 256.422 110.695 257.062 110.695C257.906 110.695 258.805 110.203 259.758 109.219C260.727 108.234 261.609 106.961 262.406 105.398C263.266 103.664 263.695 102.18 263.695 100.945C263.695 97.8359 262.305 96.2812 259.523 96.2812C258.836 96.2812 257.742 96.4297 256.242 96.7266C255.617 96.8516 255.219 96.9141 255.047 96.9141C253.984 96.9141 253.453 96.3672 253.453 95.2734C253.453 94.9141 253.664 94.0703 254.086 92.7422C254.852 90.3203 255.555 88.3672 256.195 86.8828L256.336 86.5547C256.414 86.4141 256.547 86.125 256.734 85.6875C257.172 84.6562 257.523 84.0078 257.789 83.7422C258.195 83.3672 258.883 83.1797 259.852 83.1797C262.461 83.1797 264.688 83.2109 266.531 83.2734C266.75 83.2734 267.047 83.2891 267.422 83.3203H267.727C268.711 83.3203 269.508 83.4219 270.117 83.625C270.539 83.7656 270.75 83.9844 270.75 84.2812C270.75 84.9219 270.141 85.8359 268.922 87.0234C267.047 88.8516 265.219 89.7656 263.438 89.7656C263.047 89.7656 262.43 89.7188 261.586 89.625C261.352 89.5625 261.219 89.5312 261.188 89.5312H261.047ZM278.625 106.406C279.297 106.406 279.914 106.531 280.477 106.781C281.195 107.109 281.555 107.562 281.555 108.141C281.555 110.109 280.539 111.797 278.508 113.203C277.617 113.828 276.742 114.141 275.883 114.141C274.32 114.141 273.539 113.469 273.539 112.125C273.539 110.875 274.016 109.547 274.969 108.141C275.391 107.516 275.953 107.07 276.656 106.805C277.375 106.539 278.016 106.406 278.578 106.406H278.625ZM280.125 100.453C279.469 100.453 278.891 100.227 278.391 99.7734C277.906 99.3203 277.664 98.7656 277.664 98.1094C277.664 97.5 277.852 96.7578 278.227 95.8828C278.617 94.9922 279.039 94.3281 279.492 93.8906C280.555 92.8594 281.898 92.3438 283.523 92.3438C284.992 92.3438 285.727 92.7656 285.727 93.6094V93.6562C285.727 94.3594 285.422 95.3984 284.812 96.7734C284.375 97.7578 284.008 98.4297 283.711 98.7891C283.289 99.3047 282.672 99.7266 281.859 100.055C281.188 100.32 280.609 100.453 280.125 100.453ZM306.281 83.8594H306.516C308.359 83.8594 309.781 85.2656 310.781 88.0781C311.234 89.3594 311.461 90.7031 311.461 92.1094C311.461 95.0938 310.719 98.3516 309.234 101.883C307.766 105.352 305.945 108.172 303.773 110.344C301.305 112.812 298.812 114.047 296.297 114.047C292.766 114.047 290.266 112.406 288.797 109.125C288.094 107.562 287.742 105.766 287.742 103.734C287.742 100.359 288.43 97.0859 289.805 93.9141C291.242 90.6328 293.219 87.9531 295.734 85.875C298.141 83.8906 300.617 82.8984 303.164 82.8984C304.398 82.8984 305.438 83.2188 306.281 83.8594ZM304.172 84.9609L304.594 84.7266L304.5 84.6328C302.453 84.6641 300.477 86.4453 298.57 89.9766C296.664 93.5078 295.711 97.1328 295.711 100.852C295.711 103.617 296.5 106.031 298.078 108.094C298.75 108.984 299.398 109.43 300.023 109.43C301.055 109.43 302.039 108.195 302.977 105.727C303.93 103.242 304.578 100.805 304.922 98.4141C305.094 97.1953 305.18 96.0859 305.18 95.0859C305.18 93.6797 304.969 92.2969 304.547 90.9375C304.047 89.3438 303.344 88.1641 302.438 87.3984C302.281 87.2891 302.203 87.1797 302.203 87.0703C302.203 86.7109 302.859 86.0078 304.172 84.9609ZM331.781 83.8594H332.016C333.859 83.8594 335.281 85.2656 336.281 88.0781C336.734 89.3594 336.961 90.7031 336.961 92.1094C336.961 95.0938 336.219 98.3516 334.734 101.883C333.266 105.352 331.445 108.172 329.273 110.344C326.805 112.812 324.312 114.047 321.797 114.047C318.266 114.047 315.766 112.406 314.297 109.125C313.594 107.562 313.242 105.766 313.242 103.734C313.242 100.359 313.93 97.0859 315.305 93.9141C316.742 90.6328 318.719 87.9531 321.234 85.875C323.641 83.8906 326.117 82.8984 328.664 82.8984C329.898 82.8984 330.938 83.2188 331.781 83.8594ZM329.672 84.9609L330.094 84.7266L330 84.6328C327.953 84.6641 325.977 86.4453 324.07 89.9766C322.164 93.5078 321.211 97.1328 321.211 100.852C321.211 103.617 322 106.031 323.578 108.094C324.25 108.984 324.898 109.43 325.523 109.43C326.555 109.43 327.539 108.195 328.477 105.727C329.43 103.242 330.078 100.805 330.422 98.4141C330.594 97.1953 330.68 96.0859 330.68 95.0859C330.68 93.6797 330.469 92.2969 330.047 90.9375C329.547 89.3438 328.844 88.1641 327.938 87.3984C327.781 87.2891 327.703 87.1797 327.703 87.0703C327.703 86.7109 328.359 86.0078 329.672 84.9609Z" fill="#8D8C70"/>
<path d="M181.659 179.1C180.752 179.1 179.932 178.893 179.199 178.48C178.465 178.053 177.879 177.447 177.439 176.66C177.012 175.86 176.799 174.887 176.799 173.74C176.799 172.593 177.012 171.627 177.439 170.84C177.865 170.04 178.445 169.433 179.179 169.02C179.912 168.607 180.739 168.4 181.659 168.4C182.659 168.4 183.552 168.627 184.339 169.08C185.139 169.52 185.765 170.147 186.219 170.96C186.672 171.76 186.899 172.687 186.899 173.74C186.899 174.807 186.672 175.74 186.219 176.54C185.765 177.34 185.139 177.967 184.339 178.42C183.552 178.873 182.659 179.1 181.659 179.1ZM176.239 182.88V168.5H177.599V171.66L177.459 173.76L177.659 175.88V182.88H176.239ZM181.559 177.84C182.305 177.84 182.972 177.673 183.559 177.34C184.145 176.993 184.612 176.513 184.959 175.9C185.305 175.273 185.479 174.553 185.479 173.74C185.479 172.927 185.305 172.213 184.959 171.6C184.612 170.987 184.145 170.507 183.559 170.16C182.972 169.813 182.305 169.64 181.559 169.64C180.812 169.64 180.139 169.813 179.539 170.16C178.952 170.507 178.485 170.987 178.139 171.6C177.805 172.213 177.639 172.927 177.639 173.74C177.639 174.553 177.805 175.273 178.139 175.9C178.485 176.513 178.952 176.993 179.539 177.34C180.139 177.673 180.812 177.84 181.559 177.84ZM194.45 179.1C193.356 179.1 192.396 178.873 191.57 178.42C190.743 177.953 190.096 177.32 189.63 176.52C189.163 175.707 188.93 174.78 188.93 173.74C188.93 172.7 189.15 171.78 189.59 170.98C190.043 170.18 190.656 169.553 191.43 169.1C192.216 168.633 193.096 168.4 194.07 168.4C195.056 168.4 195.93 168.627 196.69 169.08C197.463 169.52 198.07 170.147 198.51 170.96C198.95 171.76 199.17 172.687 199.17 173.74C199.17 173.807 199.163 173.88 199.15 173.96C199.15 174.027 199.15 174.1 199.15 174.18H190.01V173.12H198.39L197.83 173.54C197.83 172.78 197.663 172.107 197.33 171.52C197.01 170.92 196.57 170.453 196.01 170.12C195.45 169.787 194.803 169.62 194.07 169.62C193.35 169.62 192.703 169.787 192.13 170.12C191.556 170.453 191.11 170.92 190.79 171.52C190.47 172.12 190.31 172.807 190.31 173.58V173.8C190.31 174.6 190.483 175.307 190.83 175.92C191.19 176.52 191.683 176.993 192.31 177.34C192.95 177.673 193.676 177.84 194.49 177.84C195.13 177.84 195.723 177.727 196.27 177.5C196.83 177.273 197.31 176.927 197.71 176.46L198.51 177.38C198.043 177.94 197.456 178.367 196.75 178.66C196.056 178.953 195.29 179.1 194.45 179.1ZM202.313 179V168.5H209.753V169.74H203.373L203.733 169.38V179H202.313ZM211.805 179V168.5H213.225V176.84L220.245 168.5H221.505V179H220.085V170.64L213.085 179H211.805ZM229.975 179.1C228.935 179.1 228.001 178.873 227.175 178.42C226.361 177.953 225.721 177.32 225.255 176.52C224.788 175.707 224.555 174.78 224.555 173.74C224.555 172.687 224.788 171.76 225.255 170.96C225.721 170.16 226.361 169.533 227.175 169.08C228.001 168.627 228.935 168.4 229.975 168.4C230.868 168.4 231.675 168.573 232.395 168.92C233.115 169.267 233.681 169.787 234.095 170.48L233.035 171.2C232.675 170.667 232.228 170.273 231.695 170.02C231.161 169.767 230.581 169.64 229.955 169.64C229.208 169.64 228.535 169.813 227.935 170.16C227.335 170.493 226.861 170.967 226.515 171.58C226.168 172.193 225.995 172.913 225.995 173.74C225.995 174.567 226.168 175.287 226.515 175.9C226.861 176.513 227.335 176.993 227.935 177.34C228.535 177.673 229.208 177.84 229.955 177.84C230.581 177.84 231.161 177.713 231.695 177.46C232.228 177.207 232.675 176.82 233.035 176.3L234.095 177.02C233.681 177.7 233.115 178.22 232.395 178.58C231.675 178.927 230.868 179.1 229.975 179.1ZM238.649 179V169.36L239.009 169.74H234.669V168.5H244.049V169.74H239.709L240.069 169.36V179H238.649ZM251.522 179.1C250.615 179.1 249.795 178.893 249.062 178.48C248.329 178.053 247.742 177.447 247.302 176.66C246.875 175.86 246.662 174.887 246.662 173.74C246.662 172.593 246.875 171.627 247.302 170.84C247.729 170.04 248.309 169.433 249.042 169.02C249.775 168.607 250.602 168.4 251.522 168.4C252.522 168.4 253.415 168.627 254.202 169.08C255.002 169.52 255.629 170.147 256.082 170.96C256.535 171.76 256.762 172.687 256.762 173.74C256.762 174.807 256.535 175.74 256.082 176.54C255.629 177.34 255.002 177.967 254.202 178.42C253.415 178.873 252.522 179.1 251.522 179.1ZM246.102 182.88V168.5H247.462V171.66L247.322 173.76L247.522 175.88V182.88H246.102ZM251.422 177.84C252.169 177.84 252.835 177.673 253.422 177.34C254.009 176.993 254.475 176.513 254.822 175.9C255.169 175.273 255.342 174.553 255.342 173.74C255.342 172.927 255.169 172.213 254.822 171.6C254.475 170.987 254.009 170.507 253.422 170.16C252.835 169.813 252.169 169.64 251.422 169.64C250.675 169.64 250.002 169.813 249.402 170.16C248.815 170.507 248.349 170.987 248.002 171.6C247.669 172.213 247.502 172.927 247.502 173.74C247.502 174.553 247.669 175.273 248.002 175.9C248.349 176.513 248.815 176.993 249.402 177.34C250.002 177.673 250.675 177.84 251.422 177.84ZM266.274 179V176.68L266.214 176.3V172.42C266.214 171.527 265.961 170.84 265.454 170.36C264.961 169.88 264.221 169.64 263.234 169.64C262.554 169.64 261.908 169.753 261.294 169.98C260.681 170.207 260.161 170.507 259.734 170.88L259.094 169.82C259.628 169.367 260.268 169.02 261.014 168.78C261.761 168.527 262.548 168.4 263.374 168.4C264.734 168.4 265.781 168.74 266.514 169.42C267.261 170.087 267.634 171.107 267.634 172.48V179H266.274ZM262.654 179.1C261.868 179.1 261.181 178.973 260.594 178.72C260.021 178.453 259.581 178.093 259.274 177.64C258.968 177.173 258.814 176.64 258.814 176.04C258.814 175.493 258.941 175 259.194 174.56C259.461 174.107 259.888 173.747 260.474 173.48C261.074 173.2 261.874 173.06 262.874 173.06H266.494V174.12H262.914C261.901 174.12 261.194 174.3 260.794 174.66C260.408 175.02 260.214 175.467 260.214 176C260.214 176.6 260.448 177.08 260.914 177.44C261.381 177.8 262.034 177.98 262.874 177.98C263.674 177.98 264.361 177.8 264.934 177.44C265.521 177.067 265.948 176.533 266.214 175.84L266.534 176.82C266.268 177.513 265.801 178.067 265.134 178.48C264.481 178.893 263.654 179.1 262.654 179.1ZM271.415 179V168.5H272.835V177.76H279.255V168.5H280.675V179H271.415ZM281.035 181.54V178.88L281.395 179H279.255V177.76H282.375V181.54H281.035ZM285.086 179V168.5H286.506V176.84L293.526 168.5H294.786V179H293.366V170.64L286.366 179H285.086ZM305.636 179V175.22L305.896 175.52H302.336C300.989 175.52 299.936 175.227 299.176 174.64C298.416 174.053 298.036 173.2 298.036 172.08C298.036 170.88 298.443 169.987 299.256 169.4C300.069 168.8 301.156 168.5 302.516 168.5H306.936V179H305.636ZM297.956 179L300.836 174.96H302.316L299.496 179H297.956ZM305.636 174.8V169.32L305.896 169.74H302.556C301.583 169.74 300.823 169.927 300.276 170.3C299.743 170.673 299.476 171.28 299.476 172.12C299.476 173.68 300.469 174.46 302.456 174.46H305.896L305.636 174.8ZM320.939 179.12C320.086 179.12 319.326 178.98 318.659 178.7C318.006 178.42 317.446 177.993 316.979 177.42C316.513 176.847 316.159 176.14 315.919 175.3C315.679 174.447 315.559 173.46 315.559 172.34C315.559 171.34 315.653 170.467 315.839 169.72C316.026 168.96 316.286 168.307 316.619 167.76C316.953 167.213 317.339 166.753 317.779 166.38C318.233 165.993 318.719 165.687 319.239 165.46C319.773 165.22 320.319 165.04 320.879 164.92L325.599 163.82L325.839 165.14L321.399 166.14C321.119 166.207 320.779 166.3 320.379 166.42C319.993 166.54 319.593 166.72 319.179 166.96C318.779 167.2 318.406 167.533 318.059 167.96C317.713 168.387 317.433 168.94 317.219 169.62C317.019 170.287 316.919 171.12 316.919 172.12C316.919 172.333 316.926 172.507 316.939 172.64C316.953 172.76 316.966 172.893 316.979 173.04C317.006 173.173 317.026 173.373 317.039 173.64L316.419 173.12C316.566 172.307 316.866 171.6 317.319 171C317.773 170.387 318.339 169.913 319.019 169.58C319.713 169.233 320.479 169.06 321.319 169.06C322.293 169.06 323.159 169.273 323.919 169.7C324.679 170.113 325.273 170.693 325.699 171.44C326.139 172.187 326.359 173.053 326.359 174.04C326.359 175.013 326.133 175.887 325.679 176.66C325.239 177.433 324.613 178.04 323.799 178.48C322.986 178.907 322.033 179.12 320.939 179.12ZM321.099 177.94C321.846 177.94 322.506 177.773 323.079 177.44C323.653 177.093 324.099 176.627 324.419 176.04C324.753 175.453 324.919 174.793 324.919 174.06C324.919 173.34 324.753 172.7 324.419 172.14C324.099 171.58 323.653 171.14 323.079 170.82C322.506 170.487 321.839 170.32 321.079 170.32C320.333 170.32 319.673 170.48 319.099 170.8C318.526 171.107 318.073 171.54 317.739 172.1C317.419 172.66 317.259 173.307 317.259 174.04C317.259 174.773 317.419 175.433 317.739 176.02C318.073 176.607 318.526 177.073 319.099 177.42C319.686 177.767 320.353 177.94 321.099 177.94ZM334.823 179.1C333.916 179.1 333.096 178.893 332.363 178.48C331.629 178.053 331.043 177.447 330.603 176.66C330.176 175.86 329.963 174.887 329.963 173.74C329.963 172.593 330.176 171.627 330.603 170.84C331.029 170.04 331.609 169.433 332.343 169.02C333.076 168.607 333.903 168.4 334.823 168.4C335.823 168.4 336.716 168.627 337.503 169.08C338.303 169.52 338.929 170.147 339.383 170.96C339.836 171.76 340.063 172.687 340.063 173.74C340.063 174.807 339.836 175.74 339.383 176.54C338.929 177.34 338.303 177.967 337.503 178.42C336.716 178.873 335.823 179.1 334.823 179.1ZM329.403 182.88V168.5H330.763V171.66L330.623 173.76L330.823 175.88V182.88H329.403ZM334.723 177.84C335.469 177.84 336.136 177.673 336.723 177.34C337.309 176.993 337.776 176.513 338.123 175.9C338.469 175.273 338.643 174.553 338.643 173.74C338.643 172.927 338.469 172.213 338.123 171.6C337.776 170.987 337.309 170.507 336.723 170.16C336.136 169.813 335.469 169.64 334.723 169.64C333.976 169.64 333.303 169.813 332.703 170.16C332.116 170.507 331.649 170.987 331.303 171.6C330.969 172.213 330.803 172.927 330.803 173.74C330.803 174.553 330.969 175.273 331.303 175.9C331.649 176.513 332.116 176.993 332.703 177.34C333.303 177.673 333.976 177.84 334.723 177.84ZM349.575 179V176.68L349.515 176.3V172.42C349.515 171.527 349.262 170.84 348.755 170.36C348.262 169.88 347.522 169.64 346.535 169.64C345.855 169.64 345.208 169.753 344.595 169.98C343.982 170.207 343.462 170.507 343.035 170.88L342.395 169.82C342.928 169.367 343.568 169.02 344.315 168.78C345.062 168.527 345.848 168.4 346.675 168.4C348.035 168.4 349.082 168.74 349.815 169.42C350.562 170.087 350.935 171.107 350.935 172.48V179H349.575ZM345.955 179.1C345.168 179.1 344.482 178.973 343.895 178.72C343.322 178.453 342.882 178.093 342.575 177.64C342.268 177.173 342.115 176.64 342.115 176.04C342.115 175.493 342.242 175 342.495 174.56C342.762 174.107 343.188 173.747 343.775 173.48C344.375 173.2 345.175 173.06 346.175 173.06H349.795V174.12H346.215C345.202 174.12 344.495 174.3 344.095 174.66C343.708 175.02 343.515 175.467 343.515 176C343.515 176.6 343.748 177.08 344.215 177.44C344.682 177.8 345.335 177.98 346.175 177.98C346.975 177.98 347.662 177.8 348.235 177.44C348.822 177.067 349.248 176.533 349.515 175.84L349.835 176.82C349.568 177.513 349.102 178.067 348.435 178.48C347.782 178.893 346.955 179.1 345.955 179.1ZM362.415 179L358.095 173.8L359.275 173.1L364.095 179H362.415ZM354.715 179V168.5H356.135V179H354.715ZM355.695 174.32V173.1H359.075V174.32H355.695ZM359.395 173.9L358.075 173.7L362.255 168.5H363.795L359.395 173.9ZM372.661 179V176.68L372.601 176.3V172.42C372.601 171.527 372.348 170.84 371.841 170.36C371.348 169.88 370.608 169.64 369.621 169.64C368.941 169.64 368.294 169.753 367.681 169.98C367.068 170.207 366.548 170.507 366.121 170.88L365.481 169.82C366.014 169.367 366.654 169.02 367.401 168.78C368.148 168.527 368.934 168.4 369.761 168.4C371.121 168.4 372.168 168.74 372.901 169.42C373.648 170.087 374.021 171.107 374.021 172.48V179H372.661ZM369.041 179.1C368.254 179.1 367.568 178.973 366.981 178.72C366.408 178.453 365.968 178.093 365.661 177.64C365.354 177.173 365.201 176.64 365.201 176.04C365.201 175.493 365.328 175 365.581 174.56C365.848 174.107 366.274 173.747 366.861 173.48C367.461 173.2 368.261 173.06 369.261 173.06H372.881V174.12H369.301C368.288 174.12 367.581 174.3 367.181 174.66C366.794 175.02 366.601 175.467 366.601 176C366.601 176.6 366.834 177.08 367.301 177.44C367.768 177.8 368.421 177.98 369.261 177.98C370.061 177.98 370.748 177.8 371.321 177.44C371.908 177.067 372.334 176.533 372.601 175.84L372.921 176.82C372.654 177.513 372.188 178.067 371.521 178.48C370.868 178.893 370.041 179.1 369.041 179.1Z" fill="black"/>
<path d="M78.9688 253.742L79.4375 252.594C79.2344 252.641 78.8672 252.781 78.3359 253.016C77.2734 253.469 76.5859 253.695 76.2734 253.695C75.6328 253.695 75.3125 253.148 75.3125 252.055C75.3125 250.836 75.6328 249.969 76.2734 249.453C76.9141 248.938 78.6953 248.047 81.6172 246.781L82.3203 246.477C82.3359 246.461 82.5625 246.352 83 246.148C85.125 245.133 86.4531 244.625 86.9844 244.625C88.0781 244.625 88.625 245.195 88.625 246.336C88.625 247.477 88.0781 249.547 86.9844 252.547C86.7031 253.328 86.2891 254.508 85.7422 256.086C85.6797 256.289 85.5938 256.594 85.4844 257C84.9531 258.766 84.5547 260.141 84.2891 261.125C84.2422 261.281 84.1406 261.648 83.9844 262.227L83.5859 263.609C83.5234 263.797 83.4375 264.086 83.3281 264.477C82.25 268.539 81.375 271.102 80.7031 272.164C80.25 272.883 79.3984 273.602 78.1484 274.32C77.2422 274.836 76.2656 275.094 75.2188 275.094C74.5 275.094 73.8203 274.891 73.1797 274.484C72.4609 274.016 72.1016 273.438 72.1016 272.75C72.1016 272.578 72.1328 272.398 72.1953 272.211C74.4297 265.477 76.6875 259.32 78.9688 253.742ZM100.719 256.812C99.4844 256.812 98.4531 257.945 97.625 260.211C97.25 261.211 97.0625 262.188 97.0625 263.141C97.0625 265.891 97.9922 267.969 99.8516 269.375C100.711 270.047 101.609 270.383 102.547 270.383C103.047 270.383 103.445 270.242 103.742 269.961C104.883 268.648 105.453 266.328 105.453 263C105.453 260.375 104.727 258.555 103.273 257.539C102.57 257.055 101.719 256.812 100.719 256.812ZM101.914 254.258L102.008 254.352C104.102 252.977 105.891 252.289 107.375 252.289C109.141 252.289 110.562 252.914 111.641 254.164C112.672 255.352 113.188 256.828 113.188 258.594C113.188 261.609 112.258 264.641 110.398 267.688C108.461 270.859 106.109 272.977 103.344 274.039C101.781 274.648 100.25 274.953 98.75 274.953C92.8281 274.953 89.8672 272.555 89.8672 267.758C89.8672 263.773 92.6172 257.516 98.1172 248.984C98.8672 247.828 99.4219 247 99.7812 246.5C100.641 245.344 101.336 244.633 101.867 244.367C102.148 244.227 102.641 244.102 103.344 243.992C104.578 243.805 105.766 243.711 106.906 243.711C108.734 243.711 109.648 244.203 109.648 245.188C109.648 245.703 109.07 246.469 107.914 247.484C107.305 248.016 106.219 249.203 104.656 251.047L101.914 254.258ZM119.562 267.406C120.234 267.406 120.852 267.531 121.414 267.781C122.133 268.109 122.492 268.562 122.492 269.141C122.492 271.109 121.477 272.797 119.445 274.203C118.555 274.828 117.68 275.141 116.82 275.141C115.258 275.141 114.477 274.469 114.477 273.125C114.477 271.875 114.953 270.547 115.906 269.141C116.328 268.516 116.891 268.07 117.594 267.805C118.312 267.539 118.953 267.406 119.516 267.406H119.562ZM121.062 261.453C120.406 261.453 119.828 261.227 119.328 260.773C118.844 260.32 118.602 259.766 118.602 259.109C118.602 258.5 118.789 257.758 119.164 256.883C119.555 255.992 119.977 255.328 120.43 254.891C121.492 253.859 122.836 253.344 124.461 253.344C125.93 253.344 126.664 253.766 126.664 254.609V254.656C126.664 255.359 126.359 256.398 125.75 257.773C125.312 258.758 124.945 259.43 124.648 259.789C124.227 260.305 123.609 260.727 122.797 261.055C122.125 261.32 121.547 261.453 121.062 261.453ZM147.219 244.859H147.453C149.297 244.859 150.719 246.266 151.719 249.078C152.172 250.359 152.398 251.703 152.398 253.109C152.398 256.094 151.656 259.352 150.172 262.883C148.703 266.352 146.883 269.172 144.711 271.344C142.242 273.812 139.75 275.047 137.234 275.047C133.703 275.047 131.203 273.406 129.734 270.125C129.031 268.562 128.68 266.766 128.68 264.734C128.68 261.359 129.367 258.086 130.742 254.914C132.18 251.633 134.156 248.953 136.672 246.875C139.078 244.891 141.555 243.898 144.102 243.898C145.336 243.898 146.375 244.219 147.219 244.859ZM145.109 245.961L145.531 245.727L145.438 245.633C143.391 245.664 141.414 247.445 139.508 250.977C137.602 254.508 136.648 258.133 136.648 261.852C136.648 264.617 137.438 267.031 139.016 269.094C139.688 269.984 140.336 270.43 140.961 270.43C141.992 270.43 142.977 269.195 143.914 266.727C144.867 264.242 145.516 261.805 145.859 259.414C146.031 258.195 146.117 257.086 146.117 256.086C146.117 254.68 145.906 253.297 145.484 251.938C144.984 250.344 144.281 249.164 143.375 248.398C143.219 248.289 143.141 248.18 143.141 248.07C143.141 247.711 143.797 247.008 145.109 245.961ZM172.719 244.859H172.953C174.797 244.859 176.219 246.266 177.219 249.078C177.672 250.359 177.898 251.703 177.898 253.109C177.898 256.094 177.156 259.352 175.672 262.883C174.203 266.352 172.383 269.172 170.211 271.344C167.742 273.812 165.25 275.047 162.734 275.047C159.203 275.047 156.703 273.406 155.234 270.125C154.531 268.562 154.18 266.766 154.18 264.734C154.18 261.359 154.867 258.086 156.242 254.914C157.68 251.633 159.656 248.953 162.172 246.875C164.578 244.891 167.055 243.898 169.602 243.898C170.836 243.898 171.875 244.219 172.719 244.859ZM170.609 245.961L171.031 245.727L170.938 245.633C168.891 245.664 166.914 247.445 165.008 250.977C163.102 254.508 162.148 258.133 162.148 261.852C162.148 264.617 162.938 267.031 164.516 269.094C165.188 269.984 165.836 270.43 166.461 270.43C167.492 270.43 168.477 269.195 169.414 266.727C170.367 264.242 171.016 261.805 171.359 259.414C171.531 258.195 171.617 257.086 171.617 256.086C171.617 254.68 171.406 253.297 170.984 251.938C170.484 250.344 169.781 249.164 168.875 248.398C168.719 248.289 168.641 248.18 168.641 248.07C168.641 247.711 169.297 247.008 170.609 245.961Z" fill="#8D8C70"/>
<path d="M86.281 341.12C85.4277 341.12 84.6677 340.98 84.001 340.7C83.3477 340.42 82.7877 339.993 82.321 339.42C81.8543 338.847 81.501 338.14 81.261 337.3C81.021 336.447 80.901 335.46 80.901 334.34C80.901 333.34 80.9943 332.467 81.181 331.72C81.3677 330.96 81.6277 330.307 81.961 329.76C82.2943 329.213 82.681 328.753 83.121 328.38C83.5743 327.993 84.061 327.687 84.581 327.46C85.1143 327.22 85.661 327.04 86.221 326.92L90.941 325.82L91.181 327.14L86.741 328.14C86.461 328.207 86.121 328.3 85.721 328.42C85.3343 328.54 84.9343 328.72 84.521 328.96C84.121 329.2 83.7477 329.533 83.401 329.96C83.0543 330.387 82.7743 330.94 82.561 331.62C82.361 332.287 82.261 333.12 82.261 334.12C82.261 334.333 82.2677 334.507 82.281 334.64C82.2943 334.76 82.3077 334.893 82.321 335.04C82.3477 335.173 82.3677 335.373 82.381 335.64L81.761 335.12C81.9077 334.307 82.2077 333.6 82.661 333C83.1143 332.387 83.681 331.913 84.361 331.58C85.0543 331.233 85.821 331.06 86.661 331.06C87.6343 331.06 88.501 331.273 89.261 331.7C90.021 332.113 90.6143 332.693 91.041 333.44C91.481 334.187 91.701 335.053 91.701 336.04C91.701 337.013 91.4743 337.887 91.021 338.66C90.581 339.433 89.9543 340.04 89.141 340.48C88.3277 340.907 87.3743 341.12 86.281 341.12ZM86.441 339.94C87.1877 339.94 87.8477 339.773 88.421 339.44C88.9943 339.093 89.441 338.627 89.761 338.04C90.0943 337.453 90.261 336.793 90.261 336.06C90.261 335.34 90.0943 334.7 89.761 334.14C89.441 333.58 88.9943 333.14 88.421 332.82C87.8477 332.487 87.181 332.32 86.421 332.32C85.6743 332.32 85.0143 332.48 84.441 332.8C83.8677 333.107 83.4143 333.54 83.081 334.1C82.761 334.66 82.601 335.307 82.601 336.04C82.601 336.773 82.761 337.433 83.081 338.02C83.4143 338.607 83.8677 339.073 84.441 339.42C85.0277 339.767 85.6943 339.94 86.441 339.94ZM101.206 341V338.68L101.146 338.3V334.42C101.146 333.527 100.893 332.84 100.386 332.36C99.8927 331.88 99.1527 331.64 98.166 331.64C97.486 331.64 96.8393 331.753 96.226 331.98C95.6127 332.207 95.0927 332.507 94.666 332.88L94.026 331.82C94.5593 331.367 95.1993 331.02 95.946 330.78C96.6927 330.527 97.4793 330.4 98.306 330.4C99.666 330.4 100.713 330.74 101.446 331.42C102.193 332.087 102.566 333.107 102.566 334.48V341H101.206ZM97.586 341.1C96.7993 341.1 96.1127 340.973 95.526 340.72C94.9527 340.453 94.5127 340.093 94.206 339.64C93.8993 339.173 93.746 338.64 93.746 338.04C93.746 337.493 93.8727 337 94.126 336.56C94.3927 336.107 94.8193 335.747 95.406 335.48C96.006 335.2 96.806 335.06 97.806 335.06H101.426V336.12H97.846C96.8327 336.12 96.126 336.3 95.726 336.66C95.3393 337.02 95.146 337.467 95.146 338C95.146 338.6 95.3793 339.08 95.846 339.44C96.3127 339.8 96.966 339.98 97.806 339.98C98.606 339.98 99.2927 339.8 99.866 339.44C100.453 339.067 100.879 338.533 101.146 337.84L101.466 338.82C101.199 339.513 100.733 340.067 100.066 340.48C99.4127 340.893 98.586 341.1 97.586 341.1ZM106.346 341V330.5H107.766V335.14H114.386V330.5H115.806V341H114.386V336.36H107.766V341H106.346ZM127.542 341L123.222 335.8L124.402 335.1L129.222 341H127.542ZM119.842 341V330.5H121.262V341H119.842ZM120.822 336.32V335.1H124.202V336.32H120.822ZM124.522 335.9L123.202 335.7L127.382 330.5H128.922L124.522 335.9ZM135.631 341.1C134.538 341.1 133.578 340.873 132.751 340.42C131.925 339.953 131.278 339.32 130.811 338.52C130.345 337.707 130.111 336.78 130.111 335.74C130.111 334.7 130.331 333.78 130.771 332.98C131.225 332.18 131.838 331.553 132.611 331.1C133.398 330.633 134.278 330.4 135.251 330.4C136.238 330.4 137.111 330.627 137.871 331.08C138.645 331.52 139.251 332.147 139.691 332.96C140.131 333.76 140.351 334.687 140.351 335.74C140.351 335.807 140.345 335.88 140.331 335.96C140.331 336.027 140.331 336.1 140.331 336.18H131.191V335.12H139.571L139.011 335.54C139.011 334.78 138.845 334.107 138.511 333.52C138.191 332.92 137.751 332.453 137.191 332.12C136.631 331.787 135.985 331.62 135.251 331.62C134.531 331.62 133.885 331.787 133.311 332.12C132.738 332.453 132.291 332.92 131.971 333.52C131.651 334.12 131.491 334.807 131.491 335.58V335.8C131.491 336.6 131.665 337.307 132.011 337.92C132.371 338.52 132.865 338.993 133.491 339.34C134.131 339.673 134.858 339.84 135.671 339.84C136.311 339.84 136.905 339.727 137.451 339.5C138.011 339.273 138.491 338.927 138.891 338.46L139.691 339.38C139.225 339.94 138.638 340.367 137.931 340.66C137.238 340.953 136.471 341.1 135.631 341.1ZM145.026 341V331.36L145.386 331.74H141.046V330.5H150.426V331.74H146.086L146.446 331.36V341H145.026Z" fill="black"/>
<path d="M243.734 344.188L244.109 343.719C245.047 342.297 245.664 341.328 245.961 340.812C246.617 339.688 247.102 338.641 247.414 337.672C247.805 336.453 248 335.219 248 333.969C248 332.781 247.875 331.883 247.625 331.273C247.297 330.477 246.672 329.852 245.75 329.398C244.656 330.977 244.109 332.977 244.109 335.398C244.109 336.367 244.258 337.328 244.555 338.281C244.68 338.672 244.742 338.914 244.742 339.008C244.742 339.461 244.5 339.688 244.016 339.688C243.547 339.688 242.938 339.5 242.188 339.125C241.438 338.734 240.883 338.359 240.523 338C239.523 336.969 239.023 335.562 239.023 333.781C239.023 331.312 239.961 329.242 241.836 327.57C243.727 325.883 246.086 325.039 248.914 325.039C251.789 325.039 253.945 326.164 255.383 328.414C256.055 329.477 256.391 330.625 256.391 331.859C256.391 333.672 255.664 335.82 254.211 338.305C253.445 339.602 252.469 341.023 251.281 342.57C251.188 342.695 249.805 344.359 247.133 347.562L246.664 348.125L246.266 348.57C246.922 348.758 247.82 348.852 248.961 348.852C251.539 348.852 253.586 348.625 255.102 348.172C255.523 348.047 255.812 347.984 255.969 347.984C256.125 347.984 256.203 348.031 256.203 348.125C256.203 348.797 255.766 349.812 254.891 351.172C254.141 352.312 253.43 353.203 252.758 353.844C251.164 355.375 248.695 356.141 245.352 356.141C243.805 356.141 242.242 355.945 240.664 355.555C238.383 354.977 237.242 354.133 237.242 353.023C237.242 352.445 238.047 351.258 239.656 349.461C241.266 347.664 242.438 346.188 243.172 345.031C243.203 344.969 243.273 344.852 243.383 344.68L243.734 344.188ZM265.25 344.188L265.625 343.719C266.562 342.297 267.18 341.328 267.477 340.812C268.133 339.688 268.617 338.641 268.93 337.672C269.32 336.453 269.516 335.219 269.516 333.969C269.516 332.781 269.391 331.883 269.141 331.273C268.812 330.477 268.188 329.852 267.266 329.398C266.172 330.977 265.625 332.977 265.625 335.398C265.625 336.367 265.773 337.328 266.07 338.281C266.195 338.672 266.258 338.914 266.258 339.008C266.258 339.461 266.016 339.688 265.531 339.688C265.062 339.688 264.453 339.5 263.703 339.125C262.953 338.734 262.398 338.359 262.039 338C261.039 336.969 260.539 335.562 260.539 333.781C260.539 331.312 261.477 329.242 263.352 327.57C265.242 325.883 267.602 325.039 270.43 325.039C273.305 325.039 275.461 326.164 276.898 328.414C277.57 329.477 277.906 330.625 277.906 331.859C277.906 333.672 277.18 335.82 275.727 338.305C274.961 339.602 273.984 341.023 272.797 342.57C272.703 342.695 271.32 344.359 268.648 347.562L268.18 348.125L267.781 348.57C268.438 348.758 269.336 348.852 270.477 348.852C273.055 348.852 275.102 348.625 276.617 348.172C277.039 348.047 277.328 347.984 277.484 347.984C277.641 347.984 277.719 348.031 277.719 348.125C277.719 348.797 277.281 349.812 276.406 351.172C275.656 352.312 274.945 353.203 274.273 353.844C272.68 355.375 270.211 356.141 266.867 356.141C265.32 356.141 263.758 355.945 262.18 355.555C259.898 354.977 258.758 354.133 258.758 353.023C258.758 352.445 259.562 351.258 261.172 349.461C262.781 347.664 263.953 346.188 264.688 345.031C264.719 344.969 264.789 344.852 264.898 344.68L265.25 344.188ZM285.125 348.406C285.797 348.406 286.414 348.531 286.977 348.781C287.695 349.109 288.055 349.562 288.055 350.141C288.055 352.109 287.039 353.797 285.008 355.203C284.117 355.828 283.242 356.141 282.383 356.141C280.82 356.141 280.039 355.469 280.039 354.125C280.039 352.875 280.516 351.547 281.469 350.141C281.891 349.516 282.453 349.07 283.156 348.805C283.875 348.539 284.516 348.406 285.078 348.406H285.125ZM286.625 342.453C285.969 342.453 285.391 342.227 284.891 341.773C284.406 341.32 284.164 340.766 284.164 340.109C284.164 339.5 284.352 338.758 284.727 337.883C285.117 336.992 285.539 336.328 285.992 335.891C287.055 334.859 288.398 334.344 290.023 334.344C291.492 334.344 292.227 334.766 292.227 335.609V335.656C292.227 336.359 291.922 337.398 291.312 338.773C290.875 339.758 290.508 340.43 290.211 340.789C289.789 341.305 289.172 341.727 288.359 342.055C287.688 342.32 287.109 342.453 286.625 342.453ZM312.781 325.859H313.016C314.859 325.859 316.281 327.266 317.281 330.078C317.734 331.359 317.961 332.703 317.961 334.109C317.961 337.094 317.219 340.352 315.734 343.883C314.266 347.352 312.445 350.172 310.273 352.344C307.805 354.812 305.312 356.047 302.797 356.047C299.266 356.047 296.766 354.406 295.297 351.125C294.594 349.562 294.242 347.766 294.242 345.734C294.242 342.359 294.93 339.086 296.305 335.914C297.742 332.633 299.719 329.953 302.234 327.875C304.641 325.891 307.117 324.898 309.664 324.898C310.898 324.898 311.938 325.219 312.781 325.859ZM310.672 326.961L311.094 326.727L311 326.633C308.953 326.664 306.977 328.445 305.07 331.977C303.164 335.508 302.211 339.133 302.211 342.852C302.211 345.617 303 348.031 304.578 350.094C305.25 350.984 305.898 351.43 306.523 351.43C307.555 351.43 308.539 350.195 309.477 347.727C310.43 345.242 311.078 342.805 311.422 340.414C311.594 339.195 311.68 338.086 311.68 337.086C311.68 335.68 311.469 334.297 311.047 332.938C310.547 331.344 309.844 330.164 308.938 329.398C308.781 329.289 308.703 329.18 308.703 329.07C308.703 328.711 309.359 328.008 310.672 326.961ZM338.281 325.859H338.516C340.359 325.859 341.781 327.266 342.781 330.078C343.234 331.359 343.461 332.703 343.461 334.109C343.461 337.094 342.719 340.352 341.234 343.883C339.766 347.352 337.945 350.172 335.773 352.344C333.305 354.812 330.812 356.047 328.297 356.047C324.766 356.047 322.266 354.406 320.797 351.125C320.094 349.562 319.742 347.766 319.742 345.734C319.742 342.359 320.43 339.086 321.805 335.914C323.242 332.633 325.219 329.953 327.734 327.875C330.141 325.891 332.617 324.898 335.164 324.898C336.398 324.898 337.438 325.219 338.281 325.859ZM336.172 326.961L336.594 326.727L336.5 326.633C334.453 326.664 332.477 328.445 330.57 331.977C328.664 335.508 327.711 339.133 327.711 342.852C327.711 345.617 328.5 348.031 330.078 350.094C330.75 350.984 331.398 351.43 332.023 351.43C333.055 351.43 334.039 350.195 334.977 347.727C335.93 345.242 336.578 342.805 336.922 340.414C337.094 339.195 337.18 338.086 337.18 337.086C337.18 335.68 336.969 334.297 336.547 332.938C336.047 331.344 335.344 330.164 334.438 329.398C334.281 329.289 334.203 329.18 334.203 329.07C334.203 328.711 334.859 328.008 336.172 326.961Z" fill="#8D8C70"/>
<path d="M253.947 421.12C251.867 421.107 250.247 420.633 249.087 419.7C247.927 418.767 247.347 417.44 247.347 415.72C247.347 414.027 247.927 412.72 249.087 411.8C250.261 410.867 251.907 410.393 254.027 410.38C254.041 410.38 254.067 410.38 254.107 410.38C254.161 410.38 254.207 410.38 254.247 410.38C254.287 410.38 254.314 410.38 254.327 410.38C256.461 410.393 258.121 410.867 259.307 411.8C260.494 412.72 261.087 414.027 261.087 415.72C261.087 417.453 260.487 418.787 259.287 419.72C258.101 420.653 256.434 421.12 254.287 421.12C254.287 421.12 254.261 421.12 254.207 421.12C254.154 421.12 254.101 421.12 254.047 421.12C254.007 421.12 253.974 421.12 253.947 421.12ZM254.047 419.88C254.074 419.88 254.114 419.88 254.167 419.88C254.221 419.88 254.254 419.88 254.267 419.88C255.454 419.88 256.447 419.72 257.247 419.4C258.047 419.067 258.654 418.593 259.067 417.98C259.481 417.367 259.687 416.613 259.687 415.72C259.687 414.853 259.481 414.12 259.067 413.52C258.654 412.907 258.047 412.44 257.247 412.12C256.447 411.8 255.454 411.64 254.267 411.64C254.254 411.64 254.214 411.64 254.147 411.64C254.094 411.64 254.061 411.64 254.047 411.64C252.887 411.64 251.914 411.807 251.127 412.14C250.341 412.46 249.747 412.92 249.347 413.52C248.947 414.12 248.747 414.853 248.747 415.72C248.747 416.6 248.947 417.347 249.347 417.96C249.761 418.573 250.361 419.047 251.147 419.38C251.934 419.7 252.901 419.867 254.047 419.88ZM253.507 424.88V406.16H254.887V424.88H253.507ZM264.09 421V410.5H265.51V418.84L272.53 410.5H273.79V421H272.37V412.64L265.37 421H264.09ZM277.86 421V410.5H279.28V415.14H285.9V410.5H287.32V421H285.9V416.36H279.28V421H277.86ZM297.876 421V418.68L297.816 418.3V414.42C297.816 413.527 297.563 412.84 297.056 412.36C296.563 411.88 295.823 411.64 294.836 411.64C294.156 411.64 293.509 411.753 292.896 411.98C292.283 412.207 291.763 412.507 291.336 412.88L290.696 411.82C291.229 411.367 291.869 411.02 292.616 410.78C293.363 410.527 294.149 410.4 294.976 410.4C296.336 410.4 297.383 410.74 298.116 411.42C298.863 412.087 299.236 413.107 299.236 414.48V421H297.876ZM294.256 421.1C293.469 421.1 292.783 420.973 292.196 420.72C291.623 420.453 291.183 420.093 290.876 419.64C290.569 419.173 290.416 418.64 290.416 418.04C290.416 417.493 290.543 417 290.796 416.56C291.063 416.107 291.489 415.747 292.076 415.48C292.676 415.2 293.476 415.06 294.476 415.06H298.096V416.12H294.516C293.503 416.12 292.796 416.3 292.396 416.66C292.009 417.02 291.816 417.467 291.816 418C291.816 418.6 292.049 419.08 292.516 419.44C292.983 419.8 293.636 419.98 294.476 419.98C295.276 419.98 295.963 419.8 296.536 419.44C297.123 419.067 297.549 418.533 297.816 417.84L298.136 418.82C297.869 419.513 297.403 420.067 296.736 420.48C296.083 420.893 295.256 421.1 294.256 421.1ZM302.116 421.12C301.956 421.12 301.789 421.107 301.616 421.08C301.456 421.053 301.283 421.02 301.096 420.98L301.196 419.76C301.289 419.773 301.376 419.793 301.456 419.82C301.549 419.833 301.629 419.84 301.696 419.84C302.123 419.84 302.463 419.68 302.716 419.36C302.983 419.04 303.183 418.613 303.316 418.08C303.449 417.547 303.543 416.947 303.596 416.28C303.649 415.6 303.696 414.92 303.736 414.24L303.916 410.5H311.616V421H310.196V411.32L310.556 411.74H304.836L305.176 411.3L305.016 414.34C304.976 415.247 304.903 416.113 304.796 416.94C304.703 417.767 304.549 418.493 304.336 419.12C304.136 419.747 303.856 420.24 303.496 420.6C303.136 420.947 302.676 421.12 302.116 421.12Z" fill="black"/>
</svg>
